# 3ds Max Wavefront OBJ Exporter v0.99 - (c)2007 guruware
# File Created: 26.04.2024 14:07:06

mtllib bote-basura-01.mtl

#
# object Box007
#

v  -47.1748 0.0000 12.0280
v  -17.1748 0.0000 -17.9720
v  -17.1748 0.0000 12.0280
v  -17.1748 8.0000 12.0280
v  -47.1748 8.0000 12.0280
v  -17.1748 8.0000 -17.9720
v  -47.1748 8.0000 -17.9720
v  -47.1748 0.0000 -17.9720
v  -44.6748 8.0000 9.5280
v  -44.6748 8.0000 -15.4720
v  -19.6748 2.0000 9.5280
v  -19.6748 8.0000 -15.4720
v  -19.6748 2.0000 -15.4720
v  -44.6748 2.0000 -15.4720
v  -44.6748 2.0000 9.5280
v  -19.6748 8.0000 9.5280
# 16 vertices

vn 0.0000 -1.0000 -0.0000
vn 0.0000 0.0000 1.0000
vn 1.0000 0.0000 -0.0000
vn 0.0000 0.0000 -1.0000
vn -1.0000 0.0000 -0.0000
vn 0.0000 1.0000 -0.0000
# 6 vertex normals

vt 1.0000 0.0000 0.0000
vt 0.0000 1.0000 0.0000
vt 0.0000 0.0000 0.0000
vt 1.0000 1.0000 0.0000
vt 0.0833 0.0833 0.0000
vt 0.0833 0.9167 0.0000
vt 1.0000 0.1200 0.0000
vt 0.9167 0.0833 0.0000
vt 0.9167 0.9167 0.0000
vt 0.0000 0.1200 0.0000
# 10 texture coords

o Box007
g Box007
usemtl 03___Default
s 2
f 1/1/1 2/2/1 3/3/1 
s 8
f 1/3/2 4/4/2 5/2/2 
s 16
f 3/3/3 6/4/3 4/2/3 
s 32
f 2/3/4 7/4/4 6/2/4 
s 64
f 8/3/5 5/4/5 7/2/5 
s 4
f 7/2/6 9/5/6 10/6/6 
s 1
f 11/3/5 12/7/5 13/1/5 
s 8
f 13/3/2 10/7/2 14/1/2 
s 1
f 14/3/3 9/7/3 15/1/3 
s 2
f 13/2/6 15/1/6 11/3/6 
s 8
f 15/3/4 16/7/4 11/1/4 
s 2
f 2/2/1 1/1/1 8/4/1 
s 8
f 4/4/2 1/3/2 3/1/2 
s 16
f 6/4/3 3/3/3 2/1/3 
s 32
f 7/4/4 2/3/4 8/1/4 
s 64
f 5/4/5 8/3/5 1/1/5 
s 4
f 4/1/6 9/5/6 5/3/6 
f 4/1/6 16/8/6 9/5/6 
f 6/4/6 16/8/6 4/1/6 
f 6/4/6 12/9/6 16/8/6 
f 7/2/6 12/9/6 6/4/6 
f 7/2/6 10/6/6 12/9/6 
f 9/5/6 7/2/6 5/3/6 
s 1
f 12/7/5 11/3/5 16/10/5 
s 8
f 10/7/2 13/3/2 12/10/2 
s 1
f 9/7/3 14/3/3 10/10/3 
s 2
f 15/1/6 13/2/6 14/4/6 
s 8
f 16/7/4 15/3/4 9/10/4 
# 28 faces

#
# object Box008
#

v  -49.6748 2.0000 14.5280
v  -14.6748 42.0000 14.5280
v  -49.6748 42.0000 14.5280
v  -14.6748 2.0000 14.5280
v  -14.6748 42.0000 -20.4720
v  -14.6748 2.0000 -20.4720
v  -49.6748 42.0000 -20.4720
v  -49.6748 2.0000 -20.4720
v  -44.6748 2.0000 -15.4720
v  -19.6748 2.0000 -15.4720
v  -19.6748 42.0000 9.5280
v  -19.6748 42.0000 -15.4720
v  -44.6748 42.0000 -15.4720
v  -44.6748 42.0000 9.5280
v  -44.6748 2.0000 9.5280
v  -19.6748 2.0000 9.5280
# 16 vertices

vn 0.0000 0.0000 1.0000
vn 1.0000 0.0000 -0.0000
vn 0.0000 0.0000 -1.0000
vn -1.0000 0.0000 -0.0000
vn 0.0000 -1.0000 -0.0000
vn 0.0000 1.0000 -0.0000
# 6 vertex normals

vt 0.0000 0.0000 0.0000
vt 1.0000 1.0000 0.0000
vt 0.0000 1.0000 0.0000
vt 0.8571 0.8571 0.0000
vt 0.1429 0.8571 0.0000
vt 0.8571 0.1429 0.0000
vt 1.0000 0.8000 0.0000
vt 1.0000 0.0000 0.0000
vt 0.1429 0.1429 0.0000
vt 0.0000 0.8000 0.0000
# 10 texture coords

o Box008
g Box008
usemtl 01___Default
s 8
f 17/11/7 18/12/7 19/13/7 
s 16
f 20/11/8 21/12/8 18/13/8 
s 32
f 22/11/9 23/12/9 21/13/9 
s 64
f 24/11/10 19/12/10 23/13/10 
s 2
f 25/14/11 22/13/11 26/15/11 
s 4
f 27/16/12 21/12/12 28/14/12 
s 1
f 26/11/7 29/17/7 25/18/7 
s 16
f 25/11/8 30/17/8 31/18/8 
s 1
f 31/11/9 27/17/9 32/18/9 
s 8
f 32/11/10 28/17/10 26/18/10 
f 18/12/7 17/11/7 20/18/7 
s 16
f 21/12/8 20/11/8 22/18/8 
s 32
f 23/12/9 22/11/9 24/18/9 
s 64
f 19/12/10 24/11/10 17/18/10 
s 2
f 20/11/11 26/15/11 22/13/11 
f 20/11/11 32/19/11 26/15/11 
f 17/18/11 32/19/11 20/11/11 
f 17/18/11 31/16/11 32/19/11 
f 24/12/11 31/16/11 17/18/11 
f 24/12/11 25/14/11 31/16/11 
f 22/13/11 25/14/11 24/12/11 
s 4
f 23/13/12 28/14/12 21/12/12 
f 23/13/12 29/15/12 28/14/12 
f 19/11/12 29/15/12 23/13/12 
f 19/11/12 30/19/12 29/15/12 
f 18/18/12 30/19/12 19/11/12 
f 18/18/12 27/16/12 30/19/12 
f 21/12/12 27/16/12 18/18/12 
s 1
f 29/17/7 26/11/7 28/20/7 
s 16
f 30/17/8 25/11/8 29/20/8 
s 1
f 27/17/9 31/11/9 30/20/9 
s 8
f 28/17/10 32/11/10 27/20/10 
# 32 faces

#
# object Box009
#

v  -47.1748 40.0000 12.0280
v  -17.1748 48.0000 12.0280
v  -47.1748 48.0000 12.0280
v  -17.1748 40.0000 12.0280
v  -17.1748 48.0000 -17.9720
v  -17.1748 40.0000 -17.9720
v  -47.1748 48.0000 -17.9720
v  -47.1748 40.0000 -17.9720
v  -19.6748 40.0000 9.5280
v  -44.6748 40.0000 9.5280
v  -19.6748 48.0000 9.5280
v  -19.6748 48.0000 -15.4720
v  -44.6748 40.0000 -15.4720
v  -44.6748 48.0000 9.5280
v  -19.6748 40.0000 -15.4720
v  -44.6748 48.0000 -15.4720
# 16 vertices

vn 0.0000 0.0000 1.0000
vn 1.0000 0.0000 -0.0000
vn 0.0000 0.0000 -1.0000
vn -1.0000 0.0000 -0.0000
vn 0.0000 -1.0000 -0.0000
vn 0.0000 1.0000 -0.0000
# 6 vertex normals

vt 0.0000 0.0000 0.0000
vt 1.0000 1.0000 0.0000
vt 0.0000 1.0000 0.0000
vt 0.0833 0.0833 0.0000
vt 1.0000 0.0000 0.0000
vt 0.9167 0.0833 0.0000
vt 0.9167 0.9167 0.0000
vt 0.0000 0.7148 0.0000
vt 1.0000 0.8748 0.0000
vt 1.0000 0.7148 0.0000
vt 0.0833 0.9167 0.0000
vt 0.0000 0.8748 0.0000
# 12 texture coords

o Box009
g Box009
usemtl 03___Default
s 8
f 33/21/13 34/22/13 35/23/13 
s 16
f 36/21/14 37/22/14 34/23/14 
s 32
f 38/21/15 39/22/15 37/23/15 
s 64
f 40/21/16 35/22/16 39/23/16 
s 2
f 41/24/17 33/25/17 42/26/17 
s 4
f 43/26/18 37/22/18 44/27/18 
s 1
f 45/28/14 46/29/14 42/30/14 
s 8
f 42/28/15 43/29/15 41/30/15 
s 1
f 41/28/16 44/29/16 47/30/16 
s 8
f 47/28/13 48/29/13 45/30/13 
f 34/22/13 33/21/13 36/25/13 
s 16
f 37/22/14 36/21/14 38/25/14 
s 32
f 39/22/15 38/21/15 40/25/15 
s 64
f 35/22/16 40/21/16 33/25/16 
s 2
f 40/22/17 42/26/17 33/25/17 
f 40/22/17 45/27/17 42/26/17 
f 38/23/17 45/27/17 40/22/17 
f 38/23/17 47/31/17 45/27/17 
f 36/21/17 47/31/17 38/23/17 
f 36/21/17 41/24/17 47/31/17 
f 33/25/17 41/24/17 36/21/17 
s 4
f 39/23/18 44/27/18 37/22/18 
f 39/23/18 48/31/18 44/27/18 
f 35/21/18 48/31/18 39/23/18 
f 35/21/18 46/24/18 48/31/18 
f 34/25/18 46/24/18 35/21/18 
f 34/25/18 43/26/18 46/24/18 
f 37/22/18 43/26/18 34/25/18 
s 1
f 46/29/14 45/28/14 48/32/14 
s 8
f 43/29/15 42/28/15 46/32/15 
s 1
f 44/29/16 41/28/16 43/32/16 
s 8
f 48/29/13 47/28/13 44/32/13 
# 32 faces

#
# object Box010
#

v  -49.6748 43.5000 14.5280
v  -14.6748 55.5000 14.5280
v  -49.6748 55.5000 14.5280
v  -14.6748 43.5000 14.5280
v  -14.6748 55.5000 -20.4720
v  -14.6748 43.5000 -20.4720
v  -49.6748 55.5000 -20.4720
v  -49.6748 43.5000 -20.4720
v  -25.6748 43.5000 3.5280
v  -38.6748 43.5000 3.5280
v  -49.5289 55.5000 14.3822
v  -14.8206 55.5000 14.3822
v  -38.6748 47.4369 3.5280
v  -25.6748 47.4369 3.5280
v  -25.6748 47.4369 -9.4720
v  -25.6748 47.4369 0.1160
v  -49.5289 55.5000 -20.3261
v  -38.6748 47.4369 -9.4720
v  -38.6748 47.4369 -6.0600
v  -25.6748 43.5000 -9.4720
v  -38.6748 43.5000 -9.4720
v  -14.8207 55.5000 -20.3261
# 22 vertices

vn 0.0000 0.0000 1.0000
vn 1.0000 0.0000 -0.0000
vn 0.0000 0.0000 -1.0000
vn -1.0000 0.0000 -0.0000
vn 0.0000 -1.0000 -0.0000
vn 0.0000 1.0000 -0.0000
vn 0.5729 0.6579 -0.4888
vn 0.0000 0.8027 -0.5963
vn -0.5729 0.6579 -0.4888
vn -0.5963 0.8027 0.0000
vn -0.4650 0.8853 0.0000
vn 0.0000 0.8027 0.5963
vn 0.0000 0.9952 0.0977
vn 0.5963 0.8027 0.0000
vn -1.0000 0.0000 0.0000
vn 1.0000 -0.0000 0.0000
# 16 vertex normals

vt 0.0000 0.0000 0.0000
vt 1.0000 1.0000 0.0000
vt 0.0000 1.0000 0.0000
vt 0.3143 0.3143 0.0000
vt 1.0000 0.0000 0.0000
vt 0.6857 0.3143 0.0000
vt 0.0042 0.0042 0.0000
vt 0.9958 0.0042 0.0000
vt 0.6857 0.6286 0.0000
vt 0.0042 0.0083 0.0000
vt 0.3143 0.6286 0.0000
vt 0.5882 0.6286 0.0000
vt 0.9958 0.0083 0.0000
vt 0.2625 0.2625 0.0000
vt 1.0000 0.2625 0.0000
vt 0.0000 0.2625 0.0000
vt 0.6857 0.6857 0.0000
vt 0.3143 0.6857 0.0000
vt 0.9958 0.9958 0.0000
vt 0.0042 0.9958 0.0000
vt -0.0000 0.2625 0.0000
# 21 texture coords

o Box010
g Box010
usemtl 03___Default
s 8
f 49/33/19 50/34/19 51/35/19 
s 16
f 52/33/20 53/34/20 50/35/20 
s 32
f 54/33/21 55/34/21 53/35/21 
s 64
f 56/33/22 51/34/22 55/35/22 
s 2
f 57/36/23 49/37/23 58/38/23 
s 4
f 59/39/24 50/37/24 60/40/24 
s 1
f 61/41/25 60/42/26 62/43/27 
s 2
f 62/41/28 63/43/28 64/44/29 
s 4
f 63/41/30 65/42/31 66/43/30 
s 2
f 65/45/32 67/44/32 66/41/32 
s 1
f 64/46/33 68/37/22 57/33/33 
s 8
f 68/33/19 66/47/19 69/37/19 
s 1
f 66/48/34 67/46/34 69/33/34 
f 67/46/34 58/37/20 69/33/34 
s 4
f 61/48/21 57/37/21 58/33/21 
s 1
f 62/48/27 64/46/33 57/33/33 
s 8
f 50/34/19 49/33/19 52/37/19 
s 16
f 53/34/20 52/33/20 54/37/20 
s 32
f 55/34/21 54/33/21 56/37/21 
s 64
f 51/34/22 56/33/22 49/37/22 
s 2
f 56/34/23 58/38/23 49/37/23 
f 56/34/23 69/49/23 58/38/23 
f 54/35/23 69/49/23 56/34/23 
f 54/35/23 68/50/23 69/49/23 
f 52/33/23 68/50/23 54/35/23 
f 52/33/23 57/36/23 68/50/23 
f 49/37/23 57/36/23 52/33/23 
s 4
f 53/34/24 60/40/24 50/37/24 
f 53/34/24 70/51/31 60/40/24 
f 55/35/24 70/51/31 53/34/24 
f 55/35/24 65/52/31 70/51/31 
f 51/33/24 65/52/31 55/35/24 
f 51/33/24 59/39/24 65/52/31 
f 50/37/24 59/39/24 51/33/24 
s 1
f 60/42/26 61/41/25 59/45/26 
s 2
f 70/42/28 62/41/28 60/45/28 
f 63/43/28 62/41/28 70/42/28 
s 4
f 65/42/31 63/41/30 70/45/31 
s 2
f 61/43/32 65/45/32 59/42/32 
f 67/44/32 65/45/32 61/43/32 
s 1
f 68/37/22 64/46/33 63/47/22 
s 8
f 66/47/19 68/33/19 63/53/19 
s 1
f 58/37/20 67/46/34 61/47/25 
s 4
f 57/37/21 61/48/21 62/47/21 
# 44 faces

#
# object Box011
#

v  -39.6748 43.6586 4.5280
v  -24.6748 48.6586 4.5280
v  -39.6748 48.6586 4.5280
v  -24.6748 43.6586 4.5280
v  -24.6748 48.6586 -10.4720
v  -24.6748 43.6586 -10.4720
v  -39.6748 48.6586 -10.4720
v  -39.6748 43.6586 -10.4720
v  -25.9248 43.6586 3.2780
v  -38.4248 43.6586 3.2780
v  -25.9248 48.6586 3.2780
v  -25.9248 48.6586 -9.2220
v  -38.4248 43.6586 -9.2220
v  -38.4248 48.6586 3.2780
v  -25.9248 43.6586 -9.2220
v  -38.4248 48.6586 -9.2220
# 16 vertices

vn 0.0000 0.0000 1.0000
vn 1.0000 0.0000 -0.0000
vn 0.0000 0.0000 -1.0000
vn -1.0000 0.0000 -0.0000
vn 0.0000 -1.0000 -0.0000
vn 0.0000 1.0000 -0.0000
# 6 vertex normals

vt 0.0000 0.0000 0.0000
vt 1.0000 1.0000 0.0000
vt 0.0000 1.0000 0.0000
vt 0.0833 0.0833 0.0000
vt 1.0000 0.0000 0.0000
vt 0.9167 0.0833 0.0000
vt 0.9167 0.9167 0.0000
vt 0.0000 0.3333 0.0000
vt 1.0000 0.6667 0.0000
vt 1.0000 0.3333 0.0000
vt 0.0833 0.9167 0.0000
vt 0.0000 0.6667 0.0000
# 12 texture coords

o Box011
g Box011
usemtl 03___Default
s 8
f 71/54/35 72/55/35 73/56/35 
s 16
f 74/54/36 75/55/36 72/56/36 
s 32
f 76/54/37 77/55/37 75/56/37 
s 64
f 78/54/38 73/55/38 77/56/38 
s 2
f 79/57/39 71/58/39 80/59/39 
s 4
f 81/59/40 75/55/40 82/60/40 
s 1
f 83/61/36 84/62/36 80/63/36 
s 8
f 80/61/37 81/62/37 79/63/37 
s 1
f 79/61/38 82/62/38 85/63/38 
s 8
f 85/61/35 86/62/35 83/63/35 
f 72/55/35 71/54/35 74/58/35 
s 16
f 75/55/36 74/54/36 76/58/36 
s 32
f 77/55/37 76/54/37 78/58/37 
s 64
f 73/55/38 78/54/38 71/58/38 
s 2
f 78/55/39 80/59/39 71/58/39 
f 78/55/39 83/60/39 80/59/39 
f 76/56/39 83/60/39 78/55/39 
f 76/56/39 85/64/39 83/60/39 
f 74/54/39 85/64/39 76/56/39 
f 74/54/39 79/57/39 85/64/39 
f 71/58/39 79/57/39 74/54/39 
s 4
f 77/56/40 82/60/40 75/55/40 
f 77/56/40 86/64/40 82/60/40 
f 73/54/40 86/64/40 77/56/40 
f 73/54/40 84/57/40 86/64/40 
f 72/58/40 84/57/40 73/54/40 
f 72/58/40 81/59/40 84/57/40 
f 75/55/40 81/59/40 72/58/40 
s 1
f 84/62/36 83/61/36 86/65/36 
s 8
f 81/62/37 80/61/37 84/65/37 
s 1
f 82/62/38 79/61/38 81/65/38 
s 8
f 86/62/35 85/61/35 82/65/35 
# 32 faces

