# 3ds Max Wavefront OBJ Exporter v0.99 - (c)2007 guruware
# File Created: 26.04.2024 15:36:54

mtllib bote-basura-02-amarillo.mtl

#
# object Box015
#

v  63.5963 48.1672 -1.2738
v  64.2366 47.0582 -15.7417
v  64.2366 47.0582 -1.2738
v  62.6153 48.9903 -15.7417
v  63.5963 48.1672 -15.7417
v  61.4119 49.4283 -1.2738
v  62.6153 48.9903 -1.2738
v  60.1314 49.4283 -1.2738
v  61.4119 49.4283 -15.7417
v  42.3137 49.4283 -15.7417
v  41.0331 49.4283 -1.2738
v  41.0331 49.4283 -15.7417
v  39.8298 48.9903 -15.7417
v  39.8298 48.9903 -1.2738
v  38.8488 48.1672 -15.7417
v  38.8488 48.1672 -1.2738
v  38.2085 47.0582 -1.2738
v  38.2085 47.0582 -15.7417
v  42.4323 49.3852 -1.2738
v  42.4323 49.3852 -15.7417
v  60.0127 49.3852 -1.2738
v  60.1314 49.4283 -15.7417
v  60.0127 49.3852 -15.7417
v  64.4346 45.6588 -15.7417
v  64.4589 45.7971 -1.2738
v  64.4589 45.7971 -15.7417
v  64.4346 45.9353 -15.7417
v  64.4346 45.9353 -1.2738
v  38.0470 46.1427 -1.2738
v  64.3980 46.1427 -15.7417
v  38.0105 45.9353 -1.2738
v  37.9861 45.7971 -15.7417
v  38.0105 45.9353 -15.7417
v  38.0105 45.6588 -1.2738
v  37.9861 45.7971 -1.2738
v  38.0105 46.1427 -15.7417
v  38.0470 46.1427 -15.7417
v  38.0105 46.1427 -1.2738
v  64.4346 46.1427 -1.2738
v  64.4346 46.1427 -15.7417
v  64.3980 46.1427 -1.2738
v  65.0424 46.4713 -1.2738
v  37.4026 46.4713 -15.7417
v  37.3643 0.9303 -15.7417
v  38.0105 0.9303 -1.2738
v  37.3643 0.9303 -1.2738
v  65.0807 0.9303 -1.2738
v  64.4346 0.9303 -15.7417
v  65.0807 0.9303 -15.7417
v  65.0807 45.9637 -15.7417
v  65.1063 46.1088 -15.7417
v  65.0807 45.9637 -1.2738
v  65.0807 46.2538 -15.7417
v  65.1063 46.1088 -1.2738
v  65.0807 46.4713 -1.2738
v  65.0807 46.4713 -15.7417
v  65.0424 46.4713 -15.7417
v  64.8731 47.4316 -1.2738
v  64.8731 47.4316 -15.7417
v  64.2015 48.5949 -15.7417
v  63.1725 49.4583 -15.7417
v  64.2015 48.5949 -1.2738
v  61.9103 49.9177 -1.2738
v  61.9103 49.9177 -15.7417
v  60.5671 49.9177 -15.7417
v  60.4426 49.8724 -1.2738
v  60.4426 49.8724 -15.7417
v  42.0024 49.8724 -1.2738
v  42.0024 49.8724 -15.7417
v  41.8780 49.9177 -1.2738
v  41.8780 49.9177 -15.7417
v  40.5348 49.9177 -15.7417
v  40.5348 49.9177 -1.2738
v  39.2725 49.4583 -15.7417
v  39.2725 49.4583 -1.2738
v  38.2436 48.5949 -15.7417
v  37.5720 47.4316 -15.7417
v  38.2436 48.5949 -1.2738
v  37.5720 47.4316 -1.2738
v  37.3643 46.4713 -1.2738
v  37.3643 46.4713 -15.7417
v  37.3643 46.2538 -15.7417
v  37.3387 46.1088 -15.7417
v  37.3643 46.2538 -1.2738
v  37.3643 45.9637 -1.2738
v  37.3643 45.9637 -15.7417
v  38.0105 45.6588 -15.7417
v  38.0105 4.1039 -1.3498
v  38.0105 4.1038 -15.6657
v  64.4346 4.1039 -1.3498
v  64.4346 45.6588 -1.2738
v  64.4346 4.1038 -15.6657
v  38.0105 3.4316 -15.6657
v  64.4346 3.4316 -1.3498
v  38.0105 3.4316 -1.3498
v  42.3137 49.4283 -1.2738
v  65.0807 46.2538 -1.2738
v  37.4026 46.4713 -1.2738
v  37.3387 46.1088 -1.2738
v  64.4346 0.9303 -1.2738
v  60.5671 49.9177 -1.2738
v  63.1725 49.4583 -1.2738
v  38.0105 0.9303 -15.7417
v  64.4346 3.4316 -15.6657
# 104 vertices

vn -0.7660 -0.6428 -0.0000
vn -0.9397 -0.3420 -0.0000
vn -0.5000 -0.8660 -0.0000
vn -0.1736 -0.9848 -0.0000
vn 0.1736 -0.9848 -0.0000
vn 0.5000 -0.8660 -0.0000
vn 0.7660 -0.6428 -0.0000
vn 0.9397 -0.3420 -0.0000
vn -0.3420 -0.9397 -0.0000
vn 0.3420 -0.9397 -0.0000
vn 0.0000 -1.0000 -0.0000
vn -0.9848 0.1736 0.0000
vn -1.0000 -0.0000 -0.0000
vn -0.9848 -0.1736 -0.0000
vn 0.9848 -0.1736 -0.0000
vn 1.0000 -0.0000 -0.0000
vn 0.9848 0.1736 0.0000
vn 1.0000 0.0000 -0.0000
vn -1.0000 0.0000 -0.0000
vn 0.0000 -0.0000 1.0000
vn 0.0000 0.0000 -1.0000
vn 1.0000 0.0000 0.0000
vn 0.0000 1.0000 0.0000
vn 0.9397 0.3420 0.0000
vn 0.7660 0.6428 0.0000
vn 0.5000 0.8660 0.0000
vn 0.1736 0.9848 0.0000
vn -0.1736 0.9848 0.0000
vn -0.3420 0.9397 0.0000
vn 0.3420 0.9397 0.0000
vn -0.5000 0.8660 0.0000
vn -0.7660 0.6428 0.0000
vn -0.9397 0.3420 0.0000
vn 0.0000 1.0000 -0.0000
# 34 vertex normals

vt 0.8596 0.4298 1.0000
vt 0.7021 0.1711 1.0000
vt 0.8076 0.4495 1.0000
vt 0.8060 0.1318 1.0000
vt 0.7540 0.1514 1.0000
vt 0.9635 0.3904 1.0000
vt 0.9115 0.4101 1.0000
vt 0.0804 0.7252 1.0000
vt -0.0771 0.4666 1.0000
vt 0.0284 0.7449 1.0000
vt -0.0252 0.4469 1.0000
vt 0.0268 0.4272 1.0000
vt 0.1323 0.7055 1.0000
vt 0.0787 0.4075 1.0000
vt 0.1842 0.6858 1.0000
vt 0.2362 0.6661 1.0000
vt 0.1307 0.3878 1.0000
vt 0.9583 0.3923 1.0000
vt 0.8579 0.1121 1.0000
vt 0.8528 0.1140 1.0000
vt 0.0855 0.7232 1.0000
vt 1.0120 0.6443 0.0000
vt 0.0460 0.5086 0.0000
vt 0.2124 0.9475 0.0000
vt 0.6445 0.1930 1.0000
vt 0.7557 0.4692 1.0000
vt 0.6501 0.1908 1.0000
vt 0.6558 0.1887 1.0000
vt 0.7614 0.4670 1.0000
vt 0.2739 0.6518 1.0000
vt 0.6644 0.1854 1.0000
vt 0.2824 0.6486 1.0000
vt 0.1826 0.3681 1.0000
vt 0.1769 0.3703 1.0000
vt 0.2938 0.6442 1.0000
vt 0.2881 0.6464 1.0000
vt 1.0870 0.6418 0.0000
vt 0.9001 0.1448 0.0000
vt 0.8988 0.1453 0.0000
vt 0.1582 0.9940 0.0000
vt -0.0350 0.4993 0.0000
vt 0.1533 0.9958 0.0000
vt 0.8951 0.1467 0.0000
vt 1.0883 0.6413 0.0000
vt 0.1545 0.9953 0.0000
vt 1.0261 0.7344 0.0000
vt 1.0256 0.7154 0.0000
vt 1.0457 0.7147 0.0000
vt -0.0844 0.1868 0.0000
vt 0.2891 1.1147 0.0000
vt 0.2702 1.1219 0.0000
vt 1.0844 0.8132 0.0000
vt 0.7109 -0.1147 0.0000
vt 0.7298 -0.1219 0.0000
vt 0.9284 0.2540 0.0000
vt 0.0065 0.8889 0.0000
vt -0.0881 0.6394 0.0000
vt 0.6724 0.2496 1.0000
vt 0.7198 0.3917 1.0000
vt 0.6667 0.2518 1.0000
vt 0.6781 0.2475 1.0000
vt 0.7255 0.3895 1.0000
vt 1.0344 0.4992 0.0000
vt 0.9349 0.2515 0.0000
vt 0.9398 0.2497 0.0000
vt 0.1007 0.8532 0.0000
vt 0.0048 0.6042 0.0000
vt 0.0061 0.6037 0.0000
vt 0.7774 0.3698 1.0000
vt 0.6867 0.2442 1.0000
vt 0.7244 0.2299 1.0000
vt 0.7763 0.2102 1.0000
vt 0.8283 0.1905 1.0000
vt 0.8294 0.3501 1.0000
vt 0.9333 0.3107 1.0000
vt 0.8802 0.1709 1.0000
vt -0.0029 0.5057 1.0000
vt -0.0018 0.6652 1.0000
vt -0.0548 0.5254 1.0000
vt 0.0553 0.6436 1.0000
vt 0.0022 0.5037 1.0000
vt 0.9644 0.5187 0.0000
vt 0.0811 0.6013 0.0000
vt 0.8808 0.2982 0.0000
vt 0.8751 0.1728 1.0000
vt 0.0502 0.6455 1.0000
vt 0.0491 0.4860 1.0000
vt 0.1021 0.6258 1.0000
vt 0.1010 0.4663 1.0000
vt 0.1530 0.4466 1.0000
vt 0.1540 0.6061 1.0000
vt 0.1907 0.4323 1.0000
vt 0.2060 0.5865 1.0000
vt 0.9385 0.2502 0.0000
vt 0.0097 0.6023 0.0000
vt 0.0994 0.8537 0.0000
vt 0.2049 0.4269 1.0000
vt 0.2522 0.5689 1.0000
vt 0.1992 0.4290 1.0000
vt 0.2636 0.5646 1.0000
vt 0.2106 0.4247 1.0000
vt 1.0327 0.2145 0.0000
vt 0.1108 0.8494 0.0000
vt 0.0162 0.5999 0.0000
vt -0.0235 0.4950 0.0000
vt 1.1475 0.6159 0.0000
vt 0.9612 0.1246 0.0000
vt 0.8886 0.1491 0.0000
vt 0.0921 1.0160 0.0000
vt 1.0768 0.6457 0.0000
vt 0.2240 1.1394 0.0000
vt 0.7760 -0.1394 0.0000
vt 1.1305 0.7957 0.0000
vt -0.1305 0.2043 0.0000
vt -0.0200 0.4449 1.0000
vt 0.8456 0.2055 0.0000
vt 0.7500 0.4713 1.0000
vt 0.1684 0.3735 1.0000
vt 0.7699 0.4638 1.0000
vt 0.1883 0.3659 1.0000
vt -0.0301 0.4974 0.0000
vt 1.0834 0.6432 0.0000
vt -0.0337 0.4988 0.0000
vt 1.0453 0.7103 0.0000
vt 1.0469 0.7143 0.0000
vt 0.2311 1.0190 0.0000
vt 0.2338 1.0225 0.0000
vt 0.2327 1.0230 0.0000
vt 0.2460 1.0008 0.0000
vt -0.0654 0.1796 0.0000
vt 0.2291 1.0136 0.0000
vt 0.2462 1.0036 0.0000
vt 0.2479 1.0059 0.0000
vt 0.2493 1.0097 0.0000
vt 0.2294 1.0166 0.0000
vt 1.0222 0.7065 0.0000
vt 1.0433 0.7049 0.0000
vt 1.0239 0.7088 0.0000
vt 1.0241 0.7116 0.0000
vt 1.0451 0.7073 0.0000
vt 0.2615 1.0243 0.0000
vt 0.2504 1.0093 0.0000
vt 0.2454 1.0383 0.0000
vt 0.2881 1.0376 0.0000
vt 0.2733 1.0522 0.0000
vt 0.3095 1.0565 0.0000
vt 0.3226 1.0417 0.0000
vt 0.3498 1.0509 0.0000
vt 0.3610 1.0364 0.0000
vt 0.3892 1.0360 0.0000
vt 0.3986 1.0221 0.0000
vt 0.3926 1.0337 0.0000
vt 0.9343 0.8284 0.0000
vt 0.4018 1.0200 0.0000
vt 0.9183 0.8242 0.0000
vt 0.9220 0.8237 0.0000
vt 0.9597 0.8094 0.0000
vt 0.9382 0.8278 0.0000
vt 0.9777 0.8128 0.0000
vt 0.9920 0.7880 0.0000
vt 1.0116 0.7904 0.0000
vt 1.0150 0.7619 0.0000
vt 1.0358 0.7630 0.0000
vt 1.0474 0.7342 0.0000
vt 1.0245 0.7158 0.0000
vt 1.0468 0.7143 0.0000
vt 0.2733 1.0521 0.0000
vt 1.0654 0.8204 0.0000
vt 1.0230 0.5036 0.0000
vt 0.7312 0.3873 1.0000
vt 1.0295 0.5011 0.0000
vt 0.7397 0.3841 1.0000
vt 0.8813 0.3304 1.0000
vt 0.1647 0.8219 0.0000
vt 0.9281 0.3127 1.0000
vt 0.2437 0.5722 1.0000
vt 1.0331 0.4997 0.0000
vt 0.1043 0.8519 0.0000
vt 0.2579 0.5668 1.0000
vt 1.1273 0.4640 0.0000
vt 1.1634 0.6098 0.0000
vt 0.1647 0.9915 0.0000
vt 1.2236 0.5900 0.0000
vt 1.0354 0.0935 0.0000
vt 0.9772 0.1185 0.0000
vt 0.0762 1.0221 0.0000
vt 0.0179 1.0471 0.0000
vt -0.1703 0.5506 0.0000
vt -0.1101 0.5308 0.0000
vt -0.0942 0.5247 0.0000
# 190 texture coords

o Box015
g Box015
usemtl 01___Default
s 1
f 1/1/1 2/2/2 3/3/2 
f 1/1/1 4/4/3 5/5/1 
f 6/6/4 4/4/3 7/7/3 
f 8/8/5 9/9/4 6/10/4 
f 10/9/4 11/8/5 12/11/5 
f 13/12/6 11/8/5 14/13/6 
f 15/14/7 14/13/6 16/15/7 
f 15/14/7 17/16/8 18/17/8 
f 19/18/9 10/19/4 20/20/9 
f 21/21/10 22/11/5 8/8/5 
s 8
f 19/22/11 23/23/11 21/24/11 
s 1
f 24/25/12 25/26/13 26/27/13 
f 27/28/14 25/26/13 28/29/14 
f 29/30/15 18/17/8 17/16/8 
f 30/31/14 3/3/2 2/2/2 
f 31/32/15 32/33/16 33/34/15 
f 34/35/17 32/33/16 35/36/16 
s 8
f 29/37/11 36/38/11 37/39/11 
s 16
f 31/40/18 36/41/18 38/42/18 
s 8
f 27/43/19 39/44/19 40/38/19 
s 16
f 41/45/11 40/41/11 39/42/11 
s 4
f 3/46/20 39/47/20 42/48/20 
s 2
f 18/46/21 36/47/21 43/48/21 
s 8
f 44/49/11 45/50/11 46/51/11 
f 47/52/11 48/53/11 49/54/11 
s 16
f 50/55/18 47/56/18 49/57/18 
s 1
f 51/58/16 52/59/15 50/60/15 
f 53/61/17 54/62/22 51/58/16 
s 8
f 55/63/18 53/64/18 56/65/18 
s 16
f 42/66/23 56/67/23 57/68/23 
s 1
f 58/69/24 57/70/17 59/71/24 
f 60/72/25 58/69/24 59/71/24 
f 61/73/26 62/74/25 60/72/25 
f 63/75/27 61/73/26 64/76/27 
f 65/77/28 63/78/27 64/79/27 
f 66/80/29 65/77/28 67/81/29 
s 8
f 68/82/23 67/83/23 69/84/23 
s 1
f 70/75/27 69/85/30 71/76/27 
f 70/78/27 72/77/28 73/86/28 
f 73/86/28 74/87/31 75/88/31 
f 76/89/32 75/88/31 74/87/31 
f 77/90/33 78/91/32 76/89/32 
f 43/92/12 79/93/33 77/90/33 
s 8
f 80/63/23 43/94/23 81/65/23 
s 16
f 82/95/19 80/96/19 81/67/19 
s 1
f 83/97/19 84/98/12 82/99/12 
f 85/100/14 83/97/19 86/101/14 
s 16
f 44/102/19 85/103/19 86/104/19 
f 87/105/18 88/106/18 89/107/18 
f 24/108/19 90/109/19 91/110/19 
s 1
f 92/111/21 93/112/21 89/113/21 
s 2
f 93/113/11 94/114/11 95/112/11 
s 1
f 95/114/20 90/113/20 88/111/20 
s 2
f 90/112/34 89/111/34 88/114/34 
s 1
f 2/2/2 1/1/1 5/5/1 
f 4/4/3 1/1/1 7/7/3 
f 4/4/3 6/6/4 9/19/4 
f 9/9/4 8/8/5 22/11/5 
f 11/8/5 10/9/4 96/10/4 
f 11/8/5 13/12/6 12/11/5 
f 14/13/6 15/14/7 13/12/6 
f 17/16/8 15/14/7 16/15/7 
f 10/19/4 19/18/9 96/6/4 
f 22/11/5 21/21/10 23/115/10 
s 8
f 23/23/11 19/22/11 20/116/11 
s 1
f 25/26/13 24/25/12 91/117/12 
f 25/26/13 27/28/14 26/27/13 
f 18/17/8 29/30/15 37/118/15 
f 3/3/2 30/31/14 41/119/14 
f 32/33/16 31/32/15 35/36/16 
f 32/33/16 34/35/17 87/120/17 
s 8
f 36/38/11 29/37/11 38/44/11 
s 16
f 36/41/18 31/40/18 33/121/18 
s 8
f 39/44/19 27/43/19 28/122/19 
s 16
f 40/41/11 41/45/11 30/123/11 
s 4
f 42/48/20 97/124/20 55/125/20 
f 84/126/20 98/127/20 80/128/20 
f 34/129/20 46/49/20 45/130/20 
f 34/129/20 85/131/20 46/49/20 
f 35/132/20 85/131/20 34/129/20 
f 31/133/20 85/131/20 35/132/20 
f 38/134/20 85/131/20 31/133/20 
f 38/134/20 99/135/20 85/131/20 
f 38/134/20 84/126/20 99/135/20 
f 38/134/20 98/127/20 84/126/20 
f 47/54/20 91/136/20 100/53/20 
f 52/137/20 91/136/20 47/54/20 
f 52/137/20 25/138/20 91/136/20 
f 52/137/20 28/139/20 25/138/20 
f 52/137/20 39/47/20 28/139/20 
f 54/140/20 39/47/20 52/137/20 
f 97/124/20 39/47/20 54/140/20 
f 42/48/20 39/47/20 97/124/20 
f 17/141/20 38/134/20 29/142/20 
f 17/141/20 98/127/20 38/134/20 
f 17/141/20 79/143/20 98/127/20 
f 16/144/20 79/143/20 17/141/20 
f 16/144/20 78/145/20 79/143/20 
f 16/144/20 75/146/20 78/145/20 
f 14/147/20 75/146/20 16/144/20 
f 14/147/20 73/148/20 75/146/20 
f 11/149/20 73/148/20 14/147/20 
f 11/149/20 70/150/20 73/148/20 
f 96/151/20 70/150/20 11/149/20 
f 96/151/20 68/152/20 70/150/20 
f 96/151/20 66/153/20 68/152/20 
f 19/154/20 66/153/20 96/151/20 
f 21/155/20 66/153/20 19/154/20 
f 8/156/20 66/153/20 21/155/20 
f 6/157/20 66/153/20 8/156/20 
f 6/157/20 101/158/20 66/153/20 
f 6/157/20 63/159/20 101/158/20 
f 7/160/20 63/159/20 6/157/20 
f 7/160/20 102/161/20 63/159/20 
f 1/162/20 102/161/20 7/160/20 
f 1/162/20 62/163/20 102/161/20 
f 1/162/20 58/164/20 62/163/20 
f 3/46/20 58/164/20 1/162/20 
f 3/46/20 42/48/20 58/164/20 
f 39/47/20 3/46/20 41/165/20 
s 2
f 43/48/21 82/124/21 81/166/21 
f 53/126/21 57/127/21 56/128/21 
f 24/129/21 49/49/21 48/130/21 
f 24/129/21 50/131/21 49/49/21 
f 26/132/21 50/131/21 24/129/21 
f 27/133/21 50/131/21 26/132/21 
f 40/134/21 50/131/21 27/133/21 
f 40/134/21 51/135/21 50/131/21 
f 40/134/21 53/126/21 51/135/21 
f 40/134/21 57/127/21 53/126/21 
f 44/54/21 87/136/21 103/53/21 
f 86/137/21 87/136/21 44/54/21 
f 86/137/21 32/138/21 87/136/21 
f 86/137/21 33/139/21 32/138/21 
f 86/137/21 36/47/21 33/139/21 
f 83/140/21 36/47/21 86/137/21 
f 82/124/21 36/47/21 83/140/21 
f 43/48/21 36/47/21 82/124/21 
f 2/141/21 40/134/21 30/142/21 
f 2/141/21 57/127/21 40/134/21 
f 2/141/21 59/143/21 57/127/21 
f 5/144/21 59/143/21 2/141/21 
f 5/144/21 60/167/21 59/143/21 
f 5/144/21 61/146/21 60/167/21 
f 4/147/21 61/146/21 5/144/21 
f 4/147/21 64/148/21 61/146/21 
f 9/149/21 64/148/21 4/147/21 
f 9/149/21 65/150/21 64/148/21 
f 22/151/21 65/150/21 9/149/21 
f 22/151/21 67/152/21 65/150/21 
f 22/151/21 69/153/21 67/152/21 
f 23/154/21 69/153/21 22/151/21 
f 20/155/21 69/153/21 23/154/21 
f 10/156/21 69/153/21 20/155/21 
f 12/157/21 69/153/21 10/156/21 
f 12/157/21 71/158/21 69/153/21 
f 12/157/21 72/159/21 71/158/21 
f 13/160/21 72/159/21 12/157/21 
f 13/160/21 74/161/21 72/159/21 
f 15/162/21 74/161/21 13/160/21 
f 15/162/21 76/163/21 74/161/21 
f 15/162/21 77/164/21 76/163/21 
f 18/46/21 77/164/21 15/162/21 
f 18/46/21 43/48/21 77/164/21 
f 36/47/21 18/46/21 37/165/21 
s 8
f 45/50/11 44/49/11 103/130/11 
f 48/53/11 47/52/11 100/168/11 
s 16
f 47/56/18 50/55/18 52/169/18 
s 1
f 52/59/15 51/58/16 54/62/22 
f 54/62/22 53/61/17 97/170/17 
s 8
f 53/64/18 55/63/18 97/171/18 
s 16
f 56/67/23 42/66/23 55/96/23 
s 1
f 57/70/17 58/69/24 42/172/17 
f 58/69/24 60/72/25 62/74/25 
f 62/74/25 61/73/26 102/173/26 
f 61/73/26 63/75/27 102/173/26 
f 63/78/27 65/77/28 101/86/28 
f 65/77/28 66/80/29 101/86/28 
s 8
f 67/83/23 68/82/23 66/174/23 
s 1
f 69/85/30 70/75/27 68/175/30 
f 72/77/28 70/78/27 71/79/27 
f 74/87/31 73/86/28 72/77/28 
f 75/88/31 76/89/32 78/91/32 
f 78/91/32 77/90/33 79/93/33 
f 79/93/33 43/92/12 98/176/12 
s 8
f 43/94/23 80/63/23 98/177/23 
s 16
f 80/96/19 82/95/19 84/178/19 
s 1
f 84/98/12 83/97/19 99/179/19 
f 83/97/19 85/100/14 99/179/19 
s 16
f 85/103/19 44/102/19 46/180/19 
f 95/181/18 34/182/18 45/183/18 
f 88/106/18 34/182/18 95/181/18 
f 103/184/18 95/181/18 45/183/18 
f 103/184/18 93/185/18 95/181/18 
f 87/105/18 93/185/18 103/184/18 
f 87/105/18 89/107/18 93/185/18 
f 88/106/18 87/105/18 34/182/18 
f 91/110/19 94/186/19 100/187/19 
f 91/110/19 90/109/19 94/186/19 
f 94/186/19 48/188/19 100/187/19 
f 104/189/19 48/188/19 94/186/19 
f 104/189/19 24/108/19 48/188/19 
f 92/190/19 24/108/19 104/189/19 
f 90/109/19 24/108/19 92/190/19 
s 1
f 93/112/21 92/111/21 104/114/21 
s 2
f 94/114/11 93/113/11 104/111/11 
s 1
f 90/113/20 95/114/20 94/112/20 
s 2
f 89/111/34 90/112/34 92/113/34 
# 208 faces

#
# object Box016
#

v  37.5935 3.9156 -1.9032
v  64.8516 3.9156 -15.1123
v  64.8516 3.9156 -1.9032
v  64.8516 39.7195 -1.9032
v  37.5935 39.7195 -1.9032
v  64.8516 39.7195 -15.1123
v  37.5935 39.7195 -15.1123
v  37.5935 3.9156 -15.1123
v  38.5415 39.7195 -2.2140
v  38.5415 4.6932 -14.8015
v  38.5415 4.6932 -2.2140
v  63.9035 39.7195 -2.2140
v  63.9035 4.6932 -2.2140
v  63.9035 39.7195 -14.8015
v  63.9035 4.6932 -14.8015
v  38.5415 39.7195 -14.8015
# 16 vertices

vn 0.0000 -1.0000 -0.0000
vn 0.0000 0.0000 1.0000
vn 1.0000 0.0000 -0.0000
vn 0.0000 0.0000 -1.0000
vn -1.0000 0.0000 -0.0000
vn 0.0000 1.0000 -0.0000
# 6 vertex normals

vt 1.0000 0.0000 0.0000
vt 0.0000 1.0000 0.0000
vt 0.0000 0.0000 0.0000
vt 1.0000 1.0000 0.0000
vt 0.0348 0.0235 0.0000
vt 1.0000 0.9537 0.0000
vt 0.0348 0.9765 0.0000
vt 0.9652 0.9765 0.0000
vt 0.9652 0.0235 0.0000
vt 0.0000 0.9537 0.0000
# 10 texture coords

o Box016
g Box016
usemtl 02___Default
s 2
f 105/191/35 106/192/35 107/193/35 
s 8
f 105/193/36 108/194/36 109/192/36 
s 16
f 107/193/37 110/194/37 108/192/37 
s 32
f 106/193/38 111/194/38 110/192/38 
s 64
f 112/193/39 109/194/39 111/192/39 
s 4
f 113/195/40 111/192/40 109/193/40 
s 1
f 114/193/37 113/196/37 115/191/37 
s 8
f 115/193/38 116/196/38 117/191/38 
s 1
f 117/193/39 118/196/39 119/191/39 
s 8
f 119/193/36 120/196/36 114/191/36 
s 2
f 115/191/40 119/192/40 114/194/40 
f 106/192/35 105/191/35 112/194/35 
s 8
f 108/194/36 105/193/36 107/191/36 
s 16
f 110/194/37 107/193/37 106/191/37 
s 32
f 111/194/38 106/193/38 112/191/38 
s 64
f 109/194/39 112/193/39 105/191/39 
s 4
f 120/197/40 110/194/40 111/192/40 
f 118/198/40 110/194/40 120/197/40 
f 118/198/40 108/191/40 110/194/40 
f 116/199/40 108/191/40 118/198/40 
f 116/199/40 109/193/40 108/191/40 
f 113/195/40 109/193/40 116/199/40 
f 111/192/40 113/195/40 120/197/40 
s 1
f 113/196/37 114/193/37 120/200/37 
s 8
f 116/196/38 115/193/38 113/200/38 
s 1
f 118/196/39 117/193/39 116/200/39 
s 8
f 120/196/36 119/193/36 118/200/36 
s 2
f 119/192/40 115/191/40 117/193/40 
# 28 faces

