# 3ds Max Wavefront OBJ Exporter v0.99 - (c)2007 guruware
# File Created: 26.04.2024 15:34:36

mtllib bote-basura-02-cafe.mtl

#
# object Box017
#

v  -24.8839 48.1672 -1.5894
v  -24.2436 47.0582 -16.0573
v  -24.2436 47.0582 -1.5894
v  -25.8648 48.9903 -16.0573
v  -24.8839 48.1672 -16.0573
v  -27.0682 49.4283 -1.5894
v  -25.8648 48.9903 -1.5894
v  -28.3488 49.4283 -1.5894
v  -27.0682 49.4283 -16.0573
v  -46.1664 49.4283 -16.0573
v  -47.4470 49.4283 -1.5894
v  -47.4470 49.4283 -16.0573
v  -48.6504 48.9903 -16.0573
v  -48.6504 48.9903 -1.5894
v  -49.6314 48.1672 -16.0573
v  -49.6314 48.1672 -1.5894
v  -50.2717 47.0582 -1.5894
v  -50.2717 47.0582 -16.0573
v  -46.0478 49.3852 -1.5894
v  -46.0478 49.3852 -16.0573
v  -28.4674 49.3852 -1.5894
v  -28.3488 49.4283 -16.0573
v  -28.4674 49.3852 -16.0573
v  -24.0456 45.6588 -16.0573
v  -24.0212 45.7971 -1.5894
v  -24.0212 45.7971 -16.0573
v  -24.0456 45.9353 -16.0573
v  -24.0456 45.9353 -1.5894
v  -50.4331 46.1427 -1.5894
v  -24.0821 46.1427 -16.0573
v  -50.4697 45.9353 -1.5894
v  -50.4940 45.7971 -16.0573
v  -50.4697 45.9353 -16.0573
v  -50.4697 45.6588 -1.5894
v  -50.4940 45.7971 -1.5894
v  -50.4697 46.1427 -16.0573
v  -50.4331 46.1427 -16.0573
v  -50.4697 46.1427 -1.5894
v  -24.0456 46.1427 -1.5894
v  -24.0456 46.1427 -16.0573
v  -24.0821 46.1427 -1.5894
v  -23.4377 46.4713 -1.5894
v  -51.0775 46.4713 -16.0573
v  -51.1158 0.9303 -16.0573
v  -50.4697 0.9303 -1.5894
v  -51.1158 0.9303 -1.5894
v  -23.3994 0.9303 -1.5894
v  -24.0456 0.9303 -16.0573
v  -23.3994 0.9303 -16.0573
v  -23.3994 45.9637 -16.0573
v  -23.3738 46.1088 -16.0573
v  -23.3994 45.9637 -1.5894
v  -23.3994 46.2538 -16.0573
v  -23.3738 46.1088 -1.5894
v  -23.3994 46.4713 -1.5894
v  -23.3994 46.4713 -16.0573
v  -23.4377 46.4713 -16.0573
v  -23.6071 47.4316 -1.5894
v  -23.6071 47.4316 -16.0573
v  -24.2787 48.5949 -16.0573
v  -25.3076 49.4583 -16.0573
v  -24.2787 48.5949 -1.5894
v  -26.5698 49.9177 -1.5894
v  -26.5698 49.9177 -16.0573
v  -27.9131 49.9177 -16.0573
v  -28.0375 49.8724 -1.5894
v  -28.0375 49.8724 -16.0573
v  -46.4777 49.8724 -1.5894
v  -46.4777 49.8724 -16.0573
v  -46.6022 49.9177 -1.5894
v  -46.6022 49.9177 -16.0573
v  -47.9454 49.9177 -16.0573
v  -47.9454 49.9177 -1.5894
v  -49.2076 49.4583 -16.0573
v  -49.2076 49.4583 -1.5894
v  -50.2366 48.5949 -16.0573
v  -50.9082 47.4316 -16.0573
v  -50.2366 48.5949 -1.5894
v  -50.9082 47.4316 -1.5894
v  -51.1158 46.4713 -1.5894
v  -51.1158 46.4713 -16.0573
v  -51.1158 46.2538 -16.0573
v  -51.1414 46.1088 -16.0573
v  -51.1158 46.2538 -1.5894
v  -51.1158 45.9637 -1.5894
v  -51.1158 45.9637 -16.0573
v  -50.4697 45.6588 -16.0573
v  -50.4697 4.1039 -1.6654
v  -50.4697 4.1038 -15.9813
v  -24.0456 4.1039 -1.6654
v  -24.0456 45.6588 -1.5894
v  -24.0456 4.1038 -15.9813
v  -50.4697 3.4316 -15.9813
v  -24.0456 3.4316 -1.6654
v  -50.4697 3.4316 -1.6654
v  -46.1664 49.4283 -1.5894
v  -23.3994 46.2538 -1.5894
v  -51.0775 46.4713 -1.5894
v  -51.1414 46.1088 -1.5894
v  -24.0456 0.9303 -1.5894
v  -27.9131 49.9177 -1.5894
v  -25.3076 49.4583 -1.5894
v  -50.4697 0.9303 -16.0573
v  -24.0456 3.4316 -15.9813
# 104 vertices

vn -0.7660 -0.6428 -0.0000
vn -0.9397 -0.3420 -0.0000
vn -0.5000 -0.8660 -0.0000
vn -0.1736 -0.9848 -0.0000
vn 0.1736 -0.9848 -0.0000
vn 0.5000 -0.8660 -0.0000
vn 0.7660 -0.6428 -0.0000
vn 0.9397 -0.3420 -0.0000
vn -0.3420 -0.9397 -0.0000
vn 0.3420 -0.9397 -0.0000
vn 0.0000 -1.0000 -0.0000
vn -0.9848 0.1736 0.0000
vn -1.0000 -0.0000 -0.0000
vn -0.9848 -0.1736 -0.0000
vn 0.9848 -0.1736 -0.0000
vn 1.0000 -0.0000 -0.0000
vn 0.9848 0.1736 0.0000
vn 1.0000 0.0000 -0.0000
vn -1.0000 0.0000 -0.0000
vn 0.0000 -0.0000 1.0000
vn 0.0000 0.0000 -1.0000
vn 1.0000 0.0000 0.0000
vn 0.0000 1.0000 0.0000
vn 0.9397 0.3420 0.0000
vn 0.7660 0.6428 0.0000
vn 0.5000 0.8660 0.0000
vn 0.1736 0.9848 0.0000
vn -0.1736 0.9848 0.0000
vn -0.3420 0.9397 0.0000
vn 0.3420 0.9397 0.0000
vn -0.5000 0.8660 0.0000
vn -0.7660 0.6428 0.0000
vn -0.9397 0.3420 0.0000
vn 0.0000 1.0000 -0.0000
# 34 vertex normals

vt 0.5602 0.1386 1.0000
vt 0.2628 0.1955 1.0000
vt 0.5604 0.1942 1.0000
vt 0.2623 0.0844 1.0000
vt 0.2625 0.1399 1.0000
vt 0.5597 0.0275 1.0000
vt 0.5599 0.0831 1.0000
vt 0.5639 0.9719 1.0000
vt 0.2665 1.0288 1.0000
vt 0.5641 1.0275 1.0000
vt 0.2662 0.9733 1.0000
vt 0.2660 0.9177 1.0000
vt 0.5636 0.9164 1.0000
vt 0.2657 0.8622 1.0000
vt 0.5634 0.8608 1.0000
vt 0.5631 0.8053 1.0000
vt 0.2655 0.8066 1.0000
vt 0.5597 0.0330 1.0000
vt 0.2621 0.0288 1.0000
vt 0.2621 0.0343 1.0000
vt 0.5639 0.9665 1.0000
vt 0.8145 0.0710 0.0000
vt 0.3490 0.9283 0.0000
vt 0.8183 0.9262 0.0000
vt 0.2631 0.2571 1.0000
vt 0.5607 0.2497 1.0000
vt 0.2630 0.2510 1.0000
vt 0.2630 0.2450 1.0000
vt 0.5607 0.2436 1.0000
vt 0.5630 0.7649 1.0000
vt 0.2630 0.2358 1.0000
vt 0.5629 0.7558 1.0000
vt 0.2653 0.7510 1.0000
vt 0.2653 0.7571 1.0000
vt 0.5629 0.7436 1.0000
vt 0.5629 0.7497 1.0000
vt 0.8385 -0.0001 0.0000
vt 0.3075 0.0008 0.0000
vt 0.3075 0.0022 0.0000
vt 0.8429 0.9932 0.0000
vt 0.3119 1.0008 0.0000
vt 0.8429 0.9985 0.0000
vt 0.3075 0.0061 0.0000
vt 0.8385 -0.0015 0.0000
vt 0.8429 0.9971 0.0000
vt 0.9039 0.0894 0.0000
vt 0.8859 0.0832 0.0000
vt 0.8923 0.0641 0.0000
vt 0.0019 0.9376 0.0000
vt 1.0018 0.9129 0.0000
vt 1.0019 0.9332 0.0000
vt 0.9981 0.0624 0.0000
vt -0.0018 0.0871 0.0000
vt -0.0019 0.0668 0.0000
vt 0.4197 0.0126 0.0000
vt 0.6914 1.0984 0.0000
vt 0.4245 1.0996 0.0000
vt 0.3259 0.2508 1.0000
vt 0.4755 0.2562 1.0000
vt 0.3259 0.2569 1.0000
vt 0.3259 0.2447 1.0000
vt 0.4755 0.2501 1.0000
vt 0.6865 -0.0008 0.0000
vt 0.4197 0.0056 0.0000
vt 0.4197 0.0004 0.0000
vt 0.6909 0.9978 0.0000
vt 0.4241 1.0003 0.0000
vt 0.4241 0.9990 0.0000
vt 0.4753 0.1946 1.0000
vt 0.3259 0.2355 1.0000
vt 0.3257 0.1952 1.0000
vt 0.3254 0.1397 1.0000
vt 0.3252 0.0841 1.0000
vt 0.4750 0.1390 1.0000
vt 0.4745 0.0279 1.0000
vt 0.3249 0.0285 1.0000
vt 0.3291 0.9730 1.0000
vt 0.4789 1.0279 1.0000
vt 0.3294 1.0285 1.0000
vt 0.4787 0.9668 1.0000
vt 0.3291 0.9675 1.0000
vt 0.6802 0.0716 0.0000
vt 0.4482 0.9278 0.0000
vt 0.4444 0.0727 0.0000
vt 0.3250 0.0340 1.0000
vt 0.4787 0.9723 1.0000
vt 0.3289 0.9174 1.0000
vt 0.4785 0.9168 1.0000
vt 0.3286 0.8619 1.0000
vt 0.3284 0.8063 1.0000
vt 0.4782 0.8612 1.0000
vt 0.3282 0.7660 1.0000
vt 0.4780 0.8057 1.0000
vt 0.4197 0.0017 0.0000
vt 0.4241 0.9951 0.0000
vt 0.6909 0.9992 0.0000
vt 0.3281 0.7508 1.0000
vt 0.4777 0.7562 1.0000
vt 0.3282 0.7569 1.0000
vt 0.4777 0.7440 1.0000
vt 0.3281 0.7447 1.0000
vt 0.4192 -0.0989 0.0000
vt 0.6909 0.9869 0.0000
vt 0.4240 0.9881 0.0000
vt 0.3118 0.9886 0.0000
vt 0.8354 -0.0659 0.0000
vt 0.3100 -0.0635 0.0000
vt 0.3075 0.0131 0.0000
vt 0.8404 1.0629 0.0000
vt 0.8385 0.0107 0.0000
vt 1.0021 0.9825 0.0000
vt -0.0021 0.0175 0.0000
vt 0.9978 0.0131 0.0000
vt 0.0022 0.9869 0.0000
vt 0.9979 0.0131 0.0000
vt 0.0021 0.9869 0.0000
vt 0.2662 0.9678 1.0000
vt 0.3452 0.0731 0.0000
vt 0.5607 0.2558 1.0000
vt 0.2653 0.7663 1.0000
vt 0.5606 0.2345 1.0000
vt 0.2652 0.7450 1.0000
vt 0.3119 0.9956 0.0000
vt 0.8385 0.0037 0.0000
vt 0.3119 0.9995 0.0000
vt 0.8880 0.0629 0.0000
vt 0.8923 0.0629 0.0000
vt 0.8919 0.9336 0.0000
vt 0.8961 0.9324 0.0000
vt 0.8961 0.9336 0.0000
vt 0.8801 0.9134 0.0000
vt 0.0018 0.9173 0.0000
vt 0.8862 0.9337 0.0000
vt 0.8828 0.9142 0.0000
vt 0.8855 0.9134 0.0000
vt 0.8896 0.9134 0.0000
vt 0.8890 0.9345 0.0000
vt 0.8764 0.0833 0.0000
vt 0.8823 0.0629 0.0000
vt 0.8791 0.0825 0.0000
vt 0.8818 0.0832 0.0000
vt 0.8852 0.0621 0.0000
vt 0.9075 0.9071 0.0000
vt 0.8896 0.9122 0.0000
vt 0.9150 0.9270 0.0000
vt 0.9292 0.8868 0.0000
vt 0.9377 0.9058 0.0000
vt 0.9545 0.8734 0.0000
vt 0.9453 0.8560 0.0000
vt 0.9634 0.8337 0.0000
vt 0.9537 0.8181 0.0000
vt 0.9632 0.7915 0.0000
vt 0.9535 0.7779 0.0000
vt 0.9623 0.7876 0.0000
vt 0.9597 0.2083 0.0000
vt 0.9526 0.7742 0.0000
vt 0.9502 0.2218 0.0000
vt 0.9510 0.2181 0.0000
vt 0.9509 0.1779 0.0000
vt 0.9606 0.2044 0.0000
vt 0.9604 0.1622 0.0000
vt 0.9421 0.1401 0.0000
vt 0.9512 0.1226 0.0000
vt 0.9258 0.1094 0.0000
vt 0.9341 0.0903 0.0000
vt 0.9112 0.0693 0.0000
vt 0.8859 0.0844 0.0000
vt 0.9502 0.2219 0.0000
vt 0.9982 0.0827 0.0000
vt 0.6866 0.0114 0.0000
vt 0.4755 0.2440 1.0000
vt 0.6865 0.0044 0.0000
vt 0.4754 0.2349 1.0000
vt 0.4748 0.0834 1.0000
vt 0.6840 0.9268 0.0000
vt 0.4745 0.0334 1.0000
vt 0.4778 0.7653 1.0000
vt 0.6865 0.0006 0.0000
vt 0.6909 0.9939 0.0000
vt 0.4777 0.7501 1.0000
vt 0.6861 -0.1001 0.0000
vt 0.8353 -0.0829 0.0000
vt 0.8428 0.9862 0.0000
vt 0.8378 -0.1462 0.0000
vt 0.3068 -0.1439 0.0000
vt 0.3099 -0.0806 0.0000
vt 0.8405 1.0799 0.0000
vt 0.8435 1.1432 0.0000
vt 0.3125 1.1456 0.0000
vt 0.3151 1.0822 0.0000
vt 0.3150 1.0652 0.0000
# 191 texture coords

o Box017
g Box017
usemtl 01___Default
s 1
f 1/1/1 2/2/2 3/3/2 
f 1/1/1 4/4/3 5/5/1 
f 6/6/4 4/4/3 7/7/3 
f 8/8/5 9/9/4 6/10/4 
f 10/9/4 11/8/5 12/11/5 
f 13/12/6 11/8/5 14/13/6 
f 15/14/7 14/13/6 16/15/7 
f 15/14/7 17/16/8 18/17/8 
f 19/18/9 10/19/4 20/20/9 
f 21/21/10 22/11/5 8/8/5 
s 8
f 19/22/11 23/23/11 21/24/11 
s 1
f 24/25/12 25/26/13 26/27/13 
f 27/28/14 25/26/13 28/29/14 
f 29/30/15 18/17/8 17/16/8 
f 30/31/14 3/3/2 2/2/2 
f 31/32/15 32/33/16 33/34/15 
f 34/35/17 32/33/16 35/36/16 
s 8
f 29/37/11 36/38/11 37/39/11 
s 16
f 31/40/18 36/41/18 38/42/18 
s 8
f 27/43/19 39/44/19 40/38/19 
s 16
f 41/45/11 40/41/11 39/42/11 
s 4
f 3/46/20 39/47/20 42/48/20 
s 2
f 18/46/21 36/47/21 43/48/21 
s 8
f 44/49/11 45/50/11 46/51/11 
f 47/52/11 48/53/11 49/54/11 
s 16
f 50/55/18 47/56/18 49/57/18 
s 1
f 51/58/16 52/59/15 50/60/15 
f 53/61/17 54/62/22 51/58/16 
s 8
f 55/63/18 53/64/18 56/65/18 
s 16
f 42/66/23 56/67/23 57/68/23 
s 1
f 58/69/24 57/70/17 59/71/24 
f 60/72/25 58/69/24 59/71/24 
f 61/73/26 62/74/25 60/72/25 
f 63/75/27 61/73/26 64/76/27 
f 65/77/28 63/78/27 64/79/27 
f 66/80/29 65/77/28 67/81/29 
s 8
f 68/82/23 67/83/23 69/84/23 
s 1
f 70/75/27 69/85/30 71/76/27 
f 70/78/27 72/77/28 73/86/28 
f 73/86/28 74/87/31 75/88/31 
f 76/89/32 75/88/31 74/87/31 
f 77/90/33 78/91/32 76/89/32 
f 43/92/12 79/93/33 77/90/33 
s 8
f 80/63/23 43/94/23 81/65/23 
s 16
f 82/95/19 80/96/19 81/67/19 
s 1
f 83/97/19 84/98/12 82/99/12 
f 85/100/14 83/97/19 86/101/14 
s 16
f 44/102/19 85/103/19 86/104/19 
f 87/105/18 88/106/18 89/107/18 
f 24/108/19 90/109/19 91/110/19 
s 1
f 92/111/21 93/112/21 89/113/21 
s 2
f 93/113/11 94/114/11 95/112/11 
s 1
f 95/114/20 90/115/20 88/111/20 
s 2
f 90/112/34 89/111/34 88/116/34 
s 1
f 2/2/2 1/1/1 5/5/1 
f 4/4/3 1/1/1 7/7/3 
f 4/4/3 6/6/4 9/19/4 
f 9/9/4 8/8/5 22/11/5 
f 11/8/5 10/9/4 96/10/4 
f 11/8/5 13/12/6 12/11/5 
f 14/13/6 15/14/7 13/12/6 
f 17/16/8 15/14/7 16/15/7 
f 10/19/4 19/18/9 96/6/4 
f 22/11/5 21/21/10 23/117/10 
s 8
f 23/23/11 19/22/11 20/118/11 
s 1
f 25/26/13 24/25/12 91/119/12 
f 25/26/13 27/28/14 26/27/13 
f 18/17/8 29/30/15 37/120/15 
f 3/3/2 30/31/14 41/121/14 
f 32/33/16 31/32/15 35/36/16 
f 32/33/16 34/35/17 87/122/17 
s 8
f 36/38/11 29/37/11 38/44/11 
s 16
f 36/41/18 31/40/18 33/123/18 
s 8
f 39/44/19 27/43/19 28/124/19 
s 16
f 40/41/11 41/45/11 30/125/11 
s 4
f 42/48/20 97/126/20 55/127/20 
f 84/128/20 98/129/20 80/130/20 
f 34/131/20 46/49/20 45/132/20 
f 34/131/20 85/133/20 46/49/20 
f 35/134/20 85/133/20 34/131/20 
f 31/135/20 85/133/20 35/134/20 
f 38/136/20 85/133/20 31/135/20 
f 38/136/20 99/137/20 85/133/20 
f 38/136/20 84/128/20 99/137/20 
f 38/136/20 98/129/20 84/128/20 
f 47/54/20 91/138/20 100/53/20 
f 52/139/20 91/138/20 47/54/20 
f 52/139/20 25/140/20 91/138/20 
f 52/139/20 28/141/20 25/140/20 
f 52/139/20 39/47/20 28/141/20 
f 54/142/20 39/47/20 52/139/20 
f 97/126/20 39/47/20 54/142/20 
f 42/48/20 39/47/20 97/126/20 
f 17/143/20 38/136/20 29/144/20 
f 17/143/20 98/129/20 38/136/20 
f 17/143/20 79/145/20 98/129/20 
f 16/146/20 79/145/20 17/143/20 
f 16/146/20 78/147/20 79/145/20 
f 16/146/20 75/148/20 78/147/20 
f 14/149/20 75/148/20 16/146/20 
f 14/149/20 73/150/20 75/148/20 
f 11/151/20 73/150/20 14/149/20 
f 11/151/20 70/152/20 73/150/20 
f 96/153/20 70/152/20 11/151/20 
f 96/153/20 68/154/20 70/152/20 
f 96/153/20 66/155/20 68/154/20 
f 19/156/20 66/155/20 96/153/20 
f 21/157/20 66/155/20 19/156/20 
f 8/158/20 66/155/20 21/157/20 
f 6/159/20 66/155/20 8/158/20 
f 6/159/20 101/160/20 66/155/20 
f 6/159/20 63/161/20 101/160/20 
f 7/162/20 63/161/20 6/159/20 
f 7/162/20 102/163/20 63/161/20 
f 1/164/20 102/163/20 7/162/20 
f 1/164/20 62/165/20 102/163/20 
f 1/164/20 58/166/20 62/165/20 
f 3/46/20 58/166/20 1/164/20 
f 3/46/20 42/48/20 58/166/20 
f 39/47/20 3/46/20 41/167/20 
s 2
f 43/48/21 82/126/21 81/127/21 
f 53/128/21 57/129/21 56/130/21 
f 24/131/21 49/49/21 48/132/21 
f 24/131/21 50/133/21 49/49/21 
f 26/134/21 50/133/21 24/131/21 
f 27/135/21 50/133/21 26/134/21 
f 40/136/21 50/133/21 27/135/21 
f 40/136/21 51/137/21 50/133/21 
f 40/136/21 53/128/21 51/137/21 
f 40/136/21 57/129/21 53/128/21 
f 44/54/21 87/138/21 103/53/21 
f 86/139/21 87/138/21 44/54/21 
f 86/139/21 32/140/21 87/138/21 
f 86/139/21 33/141/21 32/140/21 
f 86/139/21 36/47/21 33/141/21 
f 83/142/21 36/47/21 86/139/21 
f 82/126/21 36/47/21 83/142/21 
f 43/48/21 36/47/21 82/126/21 
f 2/143/21 40/136/21 30/144/21 
f 2/143/21 57/129/21 40/136/21 
f 2/143/21 59/145/21 57/129/21 
f 5/146/21 59/145/21 2/143/21 
f 5/146/21 60/147/21 59/145/21 
f 5/146/21 61/148/21 60/147/21 
f 4/149/21 61/148/21 5/146/21 
f 4/149/21 64/150/21 61/148/21 
f 9/151/21 64/150/21 4/149/21 
f 9/151/21 65/152/21 64/150/21 
f 22/153/21 65/152/21 9/151/21 
f 22/153/21 67/154/21 65/152/21 
f 22/153/21 69/155/21 67/154/21 
f 23/156/21 69/155/21 22/153/21 
f 20/168/21 69/155/21 23/156/21 
f 10/158/21 69/155/21 20/168/21 
f 12/159/21 69/155/21 10/158/21 
f 12/159/21 71/160/21 69/155/21 
f 12/159/21 72/161/21 71/160/21 
f 13/162/21 72/161/21 12/159/21 
f 13/162/21 74/163/21 72/161/21 
f 15/164/21 74/163/21 13/162/21 
f 15/164/21 76/165/21 74/163/21 
f 15/164/21 77/166/21 76/165/21 
f 18/46/21 77/166/21 15/164/21 
f 18/46/21 43/48/21 77/166/21 
f 36/47/21 18/46/21 37/167/21 
s 8
f 45/50/11 44/49/11 103/132/11 
f 48/53/11 47/52/11 100/169/11 
s 16
f 47/56/18 50/55/18 52/170/18 
s 1
f 52/59/15 51/58/16 54/62/22 
f 54/62/22 53/61/17 97/171/17 
s 8
f 53/64/18 55/63/18 97/172/18 
s 16
f 56/67/23 42/66/23 55/96/23 
s 1
f 57/70/17 58/69/24 42/173/17 
f 58/69/24 60/72/25 62/74/25 
f 62/74/25 61/73/26 102/174/26 
f 61/73/26 63/75/27 102/174/26 
f 63/78/27 65/77/28 101/86/28 
f 65/77/28 66/80/29 101/86/28 
s 8
f 67/83/23 68/82/23 66/175/23 
s 1
f 69/85/30 70/75/27 68/176/30 
f 72/77/28 70/78/27 71/79/27 
f 74/87/31 73/86/28 72/77/28 
f 75/88/31 76/89/32 78/91/32 
f 78/91/32 77/90/33 79/93/33 
f 79/93/33 43/92/12 98/177/12 
s 8
f 43/94/23 80/63/23 98/178/23 
s 16
f 80/96/19 82/95/19 84/179/19 
s 1
f 84/98/12 83/97/19 99/180/19 
f 83/97/19 85/100/14 99/180/19 
s 16
f 85/103/19 44/102/19 46/181/19 
f 95/182/18 34/183/18 45/184/18 
f 88/106/18 34/183/18 95/182/18 
f 103/185/18 95/182/18 45/184/18 
f 103/185/18 93/186/18 95/182/18 
f 87/105/18 93/186/18 103/185/18 
f 87/105/18 89/107/18 93/186/18 
f 88/106/18 87/105/18 34/183/18 
f 91/110/19 94/187/19 100/188/19 
f 91/110/19 90/109/19 94/187/19 
f 94/187/19 48/189/19 100/188/19 
f 104/190/19 48/189/19 94/187/19 
f 104/190/19 24/108/19 48/189/19 
f 92/191/19 24/108/19 104/190/19 
f 90/109/19 24/108/19 92/191/19 
s 1
f 93/112/21 92/111/21 104/114/21 
s 2
f 94/114/11 93/113/11 104/111/11 
s 1
f 90/115/20 95/114/20 94/112/20 
s 2
f 89/111/34 90/112/34 92/113/34 
# 208 faces

#
# object Box018
#

v  -50.8867 3.9156 -2.2188
v  -23.6286 3.9156 -15.4279
v  -23.6286 3.9156 -2.2188
v  -23.6286 39.7195 -2.2188
v  -50.8867 39.7195 -2.2188
v  -23.6286 39.7195 -15.4279
v  -50.8867 39.7195 -15.4279
v  -50.8867 3.9156 -15.4279
v  -49.9386 39.7195 -2.5296
v  -49.9386 4.6932 -15.1171
v  -49.9386 4.6932 -2.5296
v  -24.5766 39.7195 -2.5296
v  -24.5766 4.6932 -2.5296
v  -24.5766 39.7195 -15.1171
v  -24.5766 4.6932 -15.1171
v  -49.9386 39.7195 -15.1171
# 16 vertices

vn 0.0000 -1.0000 -0.0000
vn 0.0000 0.0000 1.0000
vn 1.0000 0.0000 -0.0000
vn 0.0000 0.0000 -1.0000
vn -1.0000 0.0000 -0.0000
vn 0.0000 1.0000 -0.0000
# 6 vertex normals

vt 1.0000 0.0000 0.0000
vt 0.0000 1.0000 0.0000
vt 0.0000 0.0000 0.0000
vt 1.0000 1.0000 0.0000
vt 0.0348 0.0235 0.0000
vt 1.0000 0.9537 0.0000
vt 0.0348 0.9765 0.0000
vt 0.9652 0.9765 0.0000
vt 0.9652 0.0235 0.0000
vt 0.0000 0.9537 0.0000
# 10 texture coords

o Box018
g Box018
usemtl 07___Default
s 2
f 105/192/35 106/193/35 107/194/35 
s 8
f 105/194/36 108/195/36 109/193/36 
s 16
f 107/194/37 110/195/37 108/193/37 
s 32
f 106/194/38 111/195/38 110/193/38 
s 64
f 112/194/39 109/195/39 111/193/39 
s 4
f 113/196/40 111/193/40 109/194/40 
s 1
f 114/194/37 113/197/37 115/192/37 
s 8
f 115/194/38 116/197/38 117/192/38 
s 1
f 117/194/39 118/197/39 119/192/39 
s 8
f 119/194/36 120/197/36 114/192/36 
s 2
f 115/192/40 119/193/40 114/195/40 
f 106/193/35 105/192/35 112/195/35 
s 8
f 108/195/36 105/194/36 107/192/36 
s 16
f 110/195/37 107/194/37 106/192/37 
s 32
f 111/195/38 106/194/38 112/192/38 
s 64
f 109/195/39 112/194/39 105/192/39 
s 4
f 120/198/40 110/195/40 111/193/40 
f 118/199/40 110/195/40 120/198/40 
f 118/199/40 108/192/40 110/195/40 
f 116/200/40 108/192/40 118/199/40 
f 116/200/40 109/194/40 108/192/40 
f 113/196/40 109/194/40 116/200/40 
f 111/193/40 113/196/40 120/198/40 
s 1
f 113/197/37 114/194/37 120/201/37 
s 8
f 116/197/38 115/194/38 113/201/38 
s 1
f 118/197/39 117/194/39 116/201/39 
s 8
f 120/197/36 119/194/36 118/201/36 
s 2
f 119/193/40 115/192/40 117/194/40 
# 28 faces

