# 3ds Max Wavefront OBJ Exporter v0.99 - (c)2007 guruware
# File Created: 26.04.2024 18:31:45

mtllib tope-estacionamiento-02.mtl

#
# object Cylinder010
#

v  35.8868 7.2604 -40.0000
v  35.8868 0.3424 -40.0000
v  36.1137 0.3424 -38.7132
v  36.1137 7.4856 -38.7132
v  36.7671 0.3424 -37.5816
v  36.7671 8.1342 -37.5816
v  37.7680 0.3424 -36.7417
v  37.7680 9.1278 -36.7417
v  38.9959 0.3424 -36.2948
v  38.9959 10.3467 -36.2948
v  40.3025 0.3424 -36.2948
v  40.3025 11.6438 -36.2948
v  41.5304 0.3424 -36.7417
v  41.5304 12.8627 -36.7417
v  42.5313 0.3424 -37.5816
v  42.5313 13.8563 -37.5816
v  43.1847 0.3424 -38.7132
v  43.1847 14.5049 -38.7132
v  43.4116 0.3424 -40.0000
v  43.4116 14.7301 -40.0000
v  43.1847 0.3424 -41.2868
v  43.1847 14.5049 -41.2868
v  42.5313 0.3424 -42.4184
v  42.5313 13.8563 -42.4184
v  41.5304 0.3424 -43.2583
v  41.5304 12.8627 -43.2583
v  40.3025 0.3424 -43.7052
v  40.3025 11.6438 -43.7052
v  38.9959 0.3424 -43.7052
v  38.9959 10.3467 -43.7052
v  37.7680 0.3424 -43.2583
v  37.7680 9.1278 -43.2583
v  36.7671 0.3424 -42.4184
v  36.7671 8.1342 -42.4184
v  36.1137 0.3424 -41.2868
v  36.1137 7.4856 -41.2868
v  42.5537 13.7611 -37.6962
v  43.1948 14.4021 -38.8065
v  -22.0106 14.4021 -38.8065
v  -21.3695 13.7611 -37.6962
v  41.5716 12.7789 -36.8721
v  -20.3874 12.7789 -36.8721
v  40.3668 11.5742 -36.4336
v  -19.1826 11.5742 -36.4336
v  39.0847 10.2921 -36.4336
v  -17.9005 10.2921 -36.4336
v  37.8800 9.0873 -36.8721
v  -16.6958 9.0873 -36.8721
v  36.8978 8.1052 -37.6962
v  -15.7136 8.1052 -37.6962
v  36.2568 7.4641 -38.8065
v  -15.0726 7.4641 -38.8065
v  36.0342 7.2415 -40.0691
v  -14.8500 7.2415 -40.0691
v  -15.0726 7.4641 -41.3317
v  36.2568 7.4641 -41.3317
v  -15.7136 8.1052 -42.4420
v  36.8978 8.1052 -42.4420
v  -16.6958 9.0873 -43.2661
v  37.8800 9.0873 -43.2661
v  -17.9005 10.2921 -43.7046
v  39.0847 10.2921 -43.7046
v  -19.1826 11.5742 -43.7046
v  40.3668 11.5742 -43.7046
v  -20.3874 12.7789 -43.2661
v  41.5716 12.7789 -43.2661
v  -21.3695 13.7611 -42.4420
v  42.5537 13.7611 -42.4420
v  -22.0106 14.4021 -41.3317
v  43.1948 14.4021 -41.3317
v  -22.2332 14.6248 -40.0691
v  43.4174 14.6248 -40.0691
v  -14.7768 7.2604 -40.0000
v  -14.7768 0.3424 -40.0000
v  -15.0037 0.3424 -41.2868
v  -15.0037 7.4856 -41.2868
v  -15.6570 0.3424 -42.4184
v  -15.6570 8.1342 -42.4184
v  -16.6580 0.3424 -43.2583
v  -16.6580 9.1278 -43.2583
v  -17.8858 0.3424 -43.7052
v  -17.8858 10.3467 -43.7052
v  -19.1925 0.3424 -43.7052
v  -19.1925 11.6438 -43.7052
v  -20.4204 0.3424 -43.2583
v  -20.4204 12.8627 -43.2583
v  -21.4213 0.3424 -42.4184
v  -21.4213 13.8563 -42.4184
v  -22.0746 0.3424 -41.2868
v  -22.0746 14.5049 -41.2868
v  -22.3015 0.3424 -40.0000
v  -22.3015 14.7301 -40.0000
v  -22.0746 0.3424 -38.7132
v  -22.0746 14.5049 -38.7132
v  -21.4213 0.3424 -37.5816
v  -21.4213 13.8563 -37.5816
v  -20.4204 0.3424 -36.7417
v  -20.4204 12.8627 -36.7417
v  -19.1925 0.3424 -36.2948
v  -19.1925 11.6438 -36.2948
v  -17.8858 0.3424 -36.2948
v  -17.8858 10.3467 -36.2948
v  -16.6580 0.3424 -36.7417
v  -16.6580 9.1278 -36.7417
v  -15.6570 0.3424 -37.5816
v  -15.6570 8.1342 -37.5816
v  -15.0037 0.3424 -38.7132
v  -15.0037 7.4856 -38.7132
# 108 vertices

vn -1.0000 0.0000 0.0000
vn -0.9397 0.0000 0.3420
vn -0.9280 0.0000 0.3725
vn -0.7660 0.0000 0.6428
vn -0.7268 0.0000 0.6869
vn -0.5000 0.0000 0.8660
vn -0.4324 0.0000 0.9017
vn -0.1736 0.0000 0.9848
vn -0.0891 0.0000 0.9960
vn 0.1736 0.0000 0.9848
vn 0.2586 0.0000 0.9660
vn 0.5000 0.0000 0.8660
vn 0.5688 0.0000 0.8225
vn 0.7660 0.0000 0.6428
vn 0.8072 0.0000 0.5903
vn 0.9397 0.0000 0.3420
vn 0.9524 0.0000 0.3048
vn 1.0000 0.0000 -0.0000
vn 0.9397 0.0000 -0.3420
vn 0.9524 0.0000 -0.3048
vn 0.7660 0.0000 -0.6428
vn 0.8072 0.0000 -0.5903
vn 0.5000 0.0000 -0.8660
vn 0.5688 0.0000 -0.8225
vn 0.1736 0.0000 -0.9848
vn 0.2586 0.0000 -0.9660
vn -0.1736 0.0000 -0.9848
vn -0.0890 0.0000 -0.9960
vn -0.5000 0.0000 -0.8660
vn -0.4324 0.0000 -0.9017
vn -0.7660 0.0000 -0.6428
vn -0.7268 0.0000 -0.6869
vn -0.9397 0.0000 -0.3420
vn -0.9280 0.0000 -0.3725
vn 0.0000 -1.0000 -0.0000
vn -0.7071 0.7071 0.0000
vn -0.0000 0.8051 0.5932
vn -0.0000 0.9518 0.3068
vn -0.0000 0.5658 0.8245
vn -0.0000 0.2565 0.9665
vn 0.0000 -0.0888 0.9960
vn 0.0000 -0.4302 0.9027
vn 0.0000 -0.7245 0.6893
vn 0.0000 -0.9271 0.3747
vn 0.0000 -0.9271 -0.3747
vn 0.0000 -0.7245 -0.6893
vn 0.0000 -0.4302 -0.9027
vn 0.0000 -0.0888 -0.9960
vn -0.0000 0.2565 -0.9665
vn -0.0000 0.5658 -0.8245
vn -0.0000 0.8051 -0.5932
vn -0.0000 0.9518 -0.3068
vn -0.0000 1.0000 0.0000
vn -0.7097 -0.7045 -0.0000
vn -0.7097 -0.7045 0.0000
vn 0.7097 -0.7045 -0.0000
vn 0.7097 -0.7045 0.0000
vn 0.9280 0.0000 -0.3725
vn 0.7268 0.0000 -0.6869
vn 0.4324 0.0000 -0.9017
vn 0.0891 0.0000 -0.9960
vn -0.2586 0.0000 -0.9660
vn -0.5688 0.0000 -0.8225
vn -0.8072 0.0000 -0.5903
vn -0.9524 0.0000 -0.3048
vn -0.9524 0.0000 0.3048
vn -0.8072 0.0000 0.5903
vn -0.5688 0.0000 0.8225
vn -0.2586 0.0000 0.9660
vn 0.0890 0.0000 0.9960
vn 0.4324 0.0000 0.9017
vn 0.7268 0.0000 0.6869
vn 0.9280 0.0000 0.3725
vn 0.7071 0.7071 -0.0000
# 74 vertex normals

vt 0.7500 0.4631 1.0000
vt 0.7500 0.0000 1.0000
vt 0.8056 0.0000 1.0000
vt 0.8056 0.4781 1.0000
vt 0.8611 0.0000 1.0000
vt 0.8611 0.5216 1.0000
vt 0.9167 0.0000 1.0000
vt 0.9167 0.5881 1.0000
vt 0.9722 0.0000 1.0000
vt 0.9722 0.6696 1.0000
vt -0.0278 0.6696 1.0000
vt -0.0278 0.0000 1.0000
vt 0.0278 0.0000 1.0000
vt 0.0278 0.7565 1.0000
vt 0.0833 0.0000 1.0000
vt 0.0833 0.8381 1.0000
vt 0.1389 0.0000 1.0000
vt 0.1389 0.9046 1.0000
vt 0.1944 0.0000 1.0000
vt 0.1944 0.9480 1.0000
vt 0.2500 0.0000 1.0000
vt 0.2500 0.9631 1.0000
vt 0.3056 0.0000 1.0000
vt 0.3056 0.9480 1.0000
vt 0.3611 0.0000 1.0000
vt 0.3611 0.9046 1.0000
vt 0.4167 0.0000 1.0000
vt 0.4167 0.8381 1.0000
vt 0.4722 0.0000 1.0000
vt 0.4722 0.7565 1.0000
vt 0.5278 0.0000 1.0000
vt 0.5278 0.6697 1.0000
vt 0.5833 0.0000 1.0000
vt 0.5833 0.5881 1.0000
vt 0.6389 0.0000 1.0000
vt 0.6389 0.5216 1.0000
vt 0.6944 0.0000 1.0000
vt 0.6944 0.4781 1.0000
vt 0.4050 0.0000 -0.6527
vt 0.5346 0.0000 -0.3473
vt 0.6600 0.0000 0.0000
vt 0.7661 0.0000 0.3473
vt 0.8401 0.0000 0.6527
vt 0.8731 0.0000 0.8794
vt 0.7131 0.0000 0.8794
vt 0.5950 0.0000 0.6527
vt 0.4654 0.0000 0.3473
vt 0.3400 0.0000 -0.0000
vt 0.2869 0.0000 -0.8794
vt 0.1944 0.0000 -1.0000
vt 0.1389 0.0000 -1.0000
vt 0.1269 0.0000 -0.8794
vt 0.1599 0.0000 -0.6527
vt 0.2339 0.0000 -0.3473
vt 0.3258 0.3744 0.0000
vt 0.3146 0.5000 0.0000
vt 0.3258 0.6256 0.0000
vt 0.3580 0.7360 0.0000
vt 0.3580 0.2640 0.0000
vt 0.4073 0.8179 0.0000
vt 0.4073 0.1821 0.0000
vt 0.4678 0.8615 0.0000
vt 0.4678 0.1385 0.0000
vt 0.5322 0.8615 0.0000
vt 0.5322 0.1385 0.0000
vt 0.5927 0.8179 0.0000
vt 0.5927 0.1821 0.0000
vt 0.6420 0.7360 0.0000
vt 0.6420 0.2640 0.0000
vt 0.6742 0.6256 0.0000
vt 0.6742 0.3744 0.0000
vt 0.6854 0.5000 0.0000
vt 0.6389 0.0671 1.0000
vt 0.6944 0.0584 1.0000
vt 0.6944 0.9416 1.0000
vt 0.6389 0.9329 1.0000
vt 0.5833 0.0804 1.0000
vt 0.5833 0.9196 1.0000
vt 0.5278 0.0967 1.0000
vt 0.5278 0.9033 1.0000
vt 0.4722 0.1141 1.0000
vt 0.4722 0.8859 1.0000
vt 0.4167 0.1304 1.0000
vt 0.4167 0.8696 1.0000
vt 0.3611 0.1437 1.0000
vt 0.3611 0.8563 1.0000
vt 0.3056 0.1524 1.0000
vt 0.3056 0.8476 1.0000
vt 0.2500 0.1554 1.0000
vt 0.2500 0.8446 1.0000
vt 0.1944 0.8476 1.0000
vt 0.1944 0.1524 1.0000
vt 0.1389 0.8563 1.0000
vt 0.1389 0.1437 1.0000
vt 0.0833 0.8696 1.0000
vt 0.0833 0.1304 1.0000
vt 0.0278 0.8859 1.0000
vt 0.0278 0.1141 1.0000
vt -0.0278 0.9033 1.0000
vt -0.0278 0.0967 1.0000
vt 0.9722 0.0967 1.0000
vt 0.9722 0.9033 1.0000
vt 0.9167 0.9196 1.0000
vt 0.9167 0.0804 1.0000
vt 0.8611 0.9329 1.0000
vt 0.8611 0.0671 1.0000
vt 0.8056 0.9416 1.0000
vt 0.8056 0.0584 1.0000
vt 0.7500 0.9446 1.0000
vt 0.7500 0.0554 1.0000
vt 0.3477 0.3780 0.0000
vt 0.3368 0.5000 0.0000
vt 0.3477 0.6220 0.0000
vt 0.3790 0.7293 0.0000
vt 0.3790 0.2707 0.0000
vt 0.4269 0.8090 0.0000
vt 0.4269 0.1910 0.0000
vt 0.4857 0.8513 0.0000
vt 0.4857 0.1487 0.0000
vt 0.5482 0.8513 0.0000
vt 0.5482 0.1487 0.0000
vt 0.6070 0.8090 0.0000
vt 0.6070 0.1910 0.0000
vt 0.6550 0.7293 0.0000
vt 0.6550 0.2707 0.0000
vt 0.6862 0.6220 0.0000
vt 0.6862 0.3780 0.0000
vt 0.6971 0.5000 0.0000
vt 0.6523 0.6220 0.0000
vt 0.6632 0.5000 0.0000
vt 0.6523 0.3780 0.0000
vt 0.6210 0.7293 0.0000
vt 0.6210 0.2707 0.0000
vt 0.5731 0.8090 0.0000
vt 0.5731 0.1910 0.0000
vt 0.5143 0.8513 0.0000
vt 0.5143 0.1487 0.0000
vt 0.4518 0.8513 0.0000
vt 0.4518 0.1487 0.0000
vt 0.3930 0.8090 0.0000
vt 0.3930 0.1910 0.0000
vt 0.3450 0.7293 0.0000
vt 0.3450 0.2707 0.0000
vt 0.3138 0.6220 0.0000
vt 0.3138 0.3780 0.0000
vt 0.3029 0.5000 0.0000
# 146 texture coords

o Cylinder010
g Cylinder010
usemtl 07___Default
s 8
f 1/1/1 2/2/1 3/3/2 
f 3/3/2 4/4/3 1/1/1 
f 4/4/3 3/3/2 5/5/4 
f 5/5/4 6/6/5 4/4/3 
f 6/6/5 5/5/4 7/7/6 
f 7/7/6 8/8/7 6/6/5 
f 8/8/7 7/7/6 9/9/8 
f 9/9/8 10/10/9 8/8/7 
f 10/11/9 9/12/8 11/13/10 
f 11/13/10 12/14/11 10/11/9 
f 12/14/11 11/13/10 13/15/12 
f 13/15/12 14/16/13 12/14/11 
f 14/16/13 13/15/12 15/17/14 
f 15/17/14 16/18/15 14/16/13 
f 16/18/15 15/17/14 17/19/16 
f 17/19/16 18/20/17 16/18/15 
f 18/20/17 17/19/16 19/21/18 
f 19/21/18 20/22/18 18/20/17 
f 19/21/18 21/23/19 22/24/20 
f 22/24/20 20/22/18 19/21/18 
f 21/23/19 23/25/21 24/26/22 
f 24/26/22 22/24/20 21/23/19 
f 23/25/21 25/27/23 26/28/24 
f 26/28/24 24/26/22 23/25/21 
f 25/27/23 27/29/25 28/30/26 
f 28/30/26 26/28/24 25/27/23 
f 27/29/25 29/31/27 30/32/28 
f 30/32/28 28/30/26 27/29/25 
f 29/31/27 31/33/29 32/34/30 
f 32/34/30 30/32/28 29/31/27 
f 31/33/29 33/35/31 34/36/32 
f 34/36/32 32/34/30 31/33/29 
f 33/35/31 35/37/33 36/38/34 
f 36/38/34 34/36/32 33/35/31 
f 35/37/33 2/2/1 1/1/1 
f 1/1/1 36/38/34 35/37/33 
s 1
f 17/39/35 15/40/35 13/41/35 
f 17/39/35 13/41/35 11/42/35 
f 17/39/35 11/42/35 9/43/35 
f 17/39/35 9/43/35 7/44/35 
f 17/39/35 7/44/35 5/5/35 
f 17/39/35 5/5/35 3/3/35 
f 17/39/35 3/3/35 2/45/35 
f 17/39/35 2/45/35 35/46/35 
f 17/39/35 35/46/35 33/47/35 
f 17/39/35 33/47/35 31/48/35 
f 19/49/35 17/39/35 31/48/35 
f 21/50/35 19/49/35 31/48/35 
f 23/51/35 21/50/35 31/48/35 
f 25/52/35 23/51/35 31/48/35 
f 27/53/35 25/52/35 31/48/35 
f 27/53/35 31/48/35 29/54/35 
f 36/55/36 1/56/36 4/57/36 
f 36/55/36 4/57/36 6/58/36 
f 34/59/36 36/55/36 6/58/36 
f 34/59/36 6/58/36 8/60/36 
f 32/61/36 34/59/36 8/60/36 
f 32/61/36 8/60/36 10/62/36 
f 30/63/36 32/61/36 10/62/36 
f 30/63/36 10/62/36 12/64/36 
f 28/65/36 30/63/36 12/64/36 
f 28/65/36 12/64/36 14/66/36 
f 26/67/36 28/65/36 14/66/36 
f 26/67/36 14/66/36 16/68/36 
f 24/69/36 26/67/36 16/68/36 
f 24/69/36 16/68/36 18/70/36 
f 22/71/36 24/69/36 18/70/36 
f 22/71/36 18/70/36 20/72/36 
s 8
f 37/73/37 38/74/38 39/75/38 
f 39/75/38 40/76/37 37/73/37 
f 41/77/39 37/73/37 40/76/37 
f 40/76/37 42/78/39 41/77/39 
f 43/79/40 41/77/39 42/78/39 
f 42/78/39 44/80/40 43/79/40 
f 45/81/41 43/79/40 44/80/40 
f 44/80/40 46/82/41 45/81/41 
f 47/83/42 45/81/41 46/82/41 
f 46/82/41 48/84/42 47/83/42 
f 49/85/43 47/83/42 48/84/42 
f 48/84/42 50/86/43 49/85/43 
f 51/87/44 49/85/43 50/86/43 
f 50/86/43 52/88/44 51/87/44 
f 53/89/35 51/87/44 52/88/44 
f 52/88/44 54/90/35 53/89/35 
f 53/89/35 54/90/35 55/91/45 
f 55/91/45 56/92/45 53/89/35 
f 56/92/45 55/91/45 57/93/46 
f 57/93/46 58/94/46 56/92/45 
f 58/94/46 57/93/46 59/95/47 
f 59/95/47 60/96/47 58/94/46 
f 60/96/47 59/95/47 61/97/48 
f 61/97/48 62/98/48 60/96/47 
f 62/98/48 61/97/48 63/99/49 
f 63/99/49 64/100/49 62/98/48 
f 64/101/49 63/102/49 65/103/50 
f 65/103/50 66/104/50 64/101/49 
f 66/104/50 65/103/50 67/105/51 
f 67/105/51 68/106/51 66/104/50 
f 68/106/51 67/105/51 69/107/52 
f 69/107/52 70/108/52 68/106/51 
f 70/108/52 69/107/52 71/109/53 
f 71/109/53 72/110/53 70/108/52 
f 38/74/38 72/110/53 71/109/53 
f 71/109/53 39/75/38 38/74/38 
s 1
f 39/111/54 71/112/54 69/113/54 
f 39/111/54 69/113/54 67/114/54 
f 40/115/54 39/111/54 67/114/54 
f 40/115/54 67/114/54 65/116/54 
f 42/117/55 40/115/54 65/116/54 
f 42/117/55 65/116/54 63/118/55 
f 44/119/55 42/117/55 63/118/55 
f 44/119/55 63/118/55 61/120/55 
f 46/121/55 44/119/55 61/120/55 
f 46/121/55 61/120/55 59/122/55 
f 48/123/55 46/121/55 59/122/55 
f 48/123/55 59/122/55 57/124/55 
f 50/125/55 48/123/55 57/124/55 
f 50/125/55 57/124/55 55/126/55 
f 52/127/55 50/125/55 55/126/55 
f 52/127/55 55/126/55 54/128/55 
f 70/129/56 72/130/56 38/131/56 
f 68/132/56 70/129/56 38/131/56 
f 68/132/56 38/131/56 37/133/56 
f 66/134/56 68/132/56 37/133/56 
f 66/134/56 37/133/56 41/135/57 
f 64/136/57 66/134/56 41/135/57 
f 64/136/57 41/135/57 43/137/57 
f 62/138/57 64/136/57 43/137/57 
f 62/138/57 43/137/57 45/139/57 
f 60/140/57 62/138/57 45/139/57 
f 60/140/57 45/139/57 47/141/56 
f 58/142/56 60/140/57 47/141/56 
f 58/142/56 47/141/56 49/143/56 
f 56/144/56 58/142/56 49/143/56 
f 56/144/56 49/143/56 51/145/56 
f 56/144/56 51/145/56 53/146/56 
s 8
f 73/1/18 74/2/18 75/3/19 
f 75/3/19 76/4/58 73/1/18 
f 76/4/58 75/3/19 77/5/21 
f 77/5/21 78/6/59 76/4/58 
f 78/6/59 77/5/21 79/7/23 
f 79/7/23 80/8/60 78/6/59 
f 80/8/60 79/7/23 81/9/25 
f 81/9/25 82/10/61 80/8/60 
f 82/11/61 81/12/25 83/13/27 
f 83/13/27 84/14/62 82/11/61 
f 84/14/62 83/13/27 85/15/29 
f 85/15/29 86/16/63 84/14/62 
f 86/16/63 85/15/29 87/17/31 
f 87/17/31 88/18/64 86/16/63 
f 88/18/64 87/17/31 89/19/33 
f 89/19/33 90/20/65 88/18/64 
f 90/20/65 89/19/33 91/21/1 
f 91/21/1 92/22/1 90/20/65 
f 91/21/1 93/23/2 94/24/66 
f 94/24/66 92/22/1 91/21/1 
f 93/23/2 95/25/4 96/26/67 
f 96/26/67 94/24/66 93/23/2 
f 95/25/4 97/27/6 98/28/68 
f 98/28/68 96/26/67 95/25/4 
f 97/27/6 99/29/8 100/30/69 
f 100/30/69 98/28/68 97/27/6 
f 99/29/8 101/31/10 102/32/70 
f 102/32/70 100/30/69 99/29/8 
f 101/31/10 103/33/12 104/34/71 
f 104/34/71 102/32/70 101/31/10 
f 103/33/12 105/35/14 106/36/72 
f 106/36/72 104/34/71 103/33/12 
f 105/35/14 107/37/16 108/38/73 
f 108/38/73 106/36/72 105/35/14 
f 107/37/16 74/2/18 73/1/18 
f 73/1/18 108/38/73 107/37/16 
s 1
f 89/39/35 87/40/35 85/41/35 
f 89/39/35 85/41/35 83/42/35 
f 89/39/35 83/42/35 81/43/35 
f 89/39/35 81/43/35 79/44/35 
f 89/39/35 79/44/35 77/5/35 
f 89/39/35 77/5/35 75/3/35 
f 89/39/35 75/3/35 74/45/35 
f 89/39/35 74/45/35 107/46/35 
f 89/39/35 107/46/35 105/47/35 
f 89/39/35 105/47/35 103/48/35 
f 91/49/35 89/39/35 103/48/35 
f 93/50/35 91/49/35 103/48/35 
f 95/51/35 93/50/35 103/48/35 
f 97/52/35 95/51/35 103/48/35 
f 99/53/35 97/52/35 103/48/35 
f 99/53/35 103/48/35 101/54/35 
f 108/55/74 73/56/74 76/57/74 
f 108/55/74 76/57/74 78/58/74 
f 106/59/74 108/55/74 78/58/74 
f 106/59/74 78/58/74 80/60/74 
f 104/61/74 106/59/74 80/60/74 
f 104/61/74 80/60/74 82/62/74 
f 102/63/74 104/61/74 82/62/74 
f 102/63/74 82/62/74 84/64/74 
f 100/65/74 102/63/74 84/64/74 
f 100/65/74 84/64/74 86/66/74 
f 98/67/74 100/65/74 86/66/74 
f 98/67/74 86/66/74 88/68/74 
f 96/69/74 98/67/74 88/68/74 
f 96/69/74 88/68/74 90/70/74 
f 94/71/74 96/69/74 90/70/74 
f 94/71/74 90/70/74 92/72/74 
# 204 faces

