# 3ds Max Wavefront OBJ Exporter v0.99 - (c)2007 guruware
# File Created: 26.04.2024 17:45:45

mtllib tope-estacionamiento-01.mtl

#
# object Box001
#

v  -50.0000 0.0000 7.5000
v  50.0000 0.0000 -7.5000
v  50.0000 0.0000 7.5000
v  -50.0000 0.0000 -7.5000
v  50.0000 5.5000 -7.5000
v  -50.0000 5.5000 -7.5000
v  50.0000 10.0000 -3.0000
v  -50.0000 10.0000 3.0000
v  50.0000 10.0000 3.0000
v  -50.0000 10.0000 -3.0000
v  -50.0000 5.5000 7.5000
v  50.0000 5.5000 7.5000
# 12 vertices

vn 0.0000 -1.0000 -0.0000
vn 0.0000 0.0000 -1.0000
vn 0.0000 0.7071 -0.7071
vn -1.0000 0.0000 -0.0000
vn 1.0000 0.0000 -0.0000
vn 0.0000 1.0000 -0.0000
vn 0.0000 0.0000 1.0000
vn 0.0000 0.7071 0.7071
# 8 vertex normals

vt 0.0010 0.4364 0.0000
vt 0.9990 0.2867 0.0000
vt 0.9990 0.4364 0.0000
vt 0.9990 0.1140 0.0000
vt 0.0010 0.1688 0.0000
vt 0.0010 0.1140 0.0000
vt 0.0010 0.1058 0.0000
vt 0.9990 0.0609 0.0000
vt 0.9990 0.1058 0.0000
vt 0.1058 0.5393 0.0000
vt 0.0010 0.4944 0.0000
vt 0.0010 0.4395 0.0000
vt 0.8864 0.5393 0.0000
vt 0.9912 0.4944 0.0000
vt 0.9463 0.5393 0.0000
vt 0.9990 0.0010 0.0000
vt 0.0010 0.0609 0.0000
vt 0.0010 0.0010 0.0000
vt 0.0010 0.2320 0.0000
vt 0.9990 0.1771 0.0000
vt 0.9990 0.2320 0.0000
vt 0.9990 0.2769 0.0000
vt 0.0010 0.2867 0.0000
vt 0.9990 0.1688 0.0000
vt 0.1507 0.4944 0.0000
vt 0.1507 0.4395 0.0000
vt 0.0459 0.5393 0.0000
vt 0.9912 0.4395 0.0000
vt 0.8415 0.4944 0.0000
vt 0.8415 0.4395 0.0000
vt 0.0010 0.1771 0.0000
vt 0.0010 0.2769 0.0000
# 32 texture coords

o Box001
g Box001
usemtl 03___Default
s 2
f 1/1/1 2/2/1 3/3/1 
s 32
f 4/4/2 5/5/2 2/6/2 
s 1
f 6/7/3 7/8/3 5/9/3 
s 64
f 8/10/4 6/11/4 4/12/4 
s 16
f 9/13/5 5/14/5 7/15/5 
s 4
f 9/16/6 10/17/6 8/18/6 
s 8
f 11/19/7 3/20/7 12/21/7 
s 2
f 9/22/8 11/19/8 12/21/8 
f 2/2/1 1/1/1 4/23/1 
s 32
f 5/5/2 4/4/2 6/24/2 
s 1
f 7/8/3 6/7/3 10/17/3 
s 64
f 11/25/4 4/12/4 1/26/4 
f 8/10/4 4/12/4 11/25/4 
f 6/11/4 8/10/4 10/27/4 
s 16
f 2/28/5 12/29/5 3/30/5 
f 2/28/5 9/13/5 12/29/5 
f 5/14/5 9/13/5 2/28/5 
s 4
f 10/17/6 9/16/6 7/8/6 
s 8
f 3/20/7 11/19/7 1/31/7 
s 2
f 11/19/8 9/22/8 8/32/8 
# 20 faces

